<?xml version="1.0" encoding="UTF-8" standalone="no"?>
<!DOCTYPE svg PUBLIC "-//W3C//DTD SVG 1.1//EN"
 "http://www.w3.org/Graphics/SVG/1.1/DTD/svg11.dtd">
<!-- Generated by graphviz version 2.26.0 (20091210.2329)
 -->
<!-- Title: workflow Pages: 1 -->
<svg width="757pt" height="1970pt"
 viewBox="0.00 0.00 757.00 1970.00" xmlns="http://www.w3.org/2000/svg" xmlns:xlink="http://www.w3.org/1999/xlink">
<g id="graph1" class="graph" transform="scale(1 1) rotate(0) translate(4 1966)">
<title>workflow</title>
<polygon fill="white" stroke="white" points="-4,5 -4,-1966 754,-1966 754,5 -4,5"/>
<!-- http://ecs.soton.ac.uk/flows/ldblinkie/linkeddatablinkie//instance/gstreamer&#45;read/0 -->
<g id="node1" class="node"><title>http://ecs.soton.ac.uk/flows/ldblinkie/linkeddatablinkie//instance/gstreamer&#45;read/0</title>
<ellipse fill="none" stroke="black" cx="373" cy="-1573" rx="75.1594" ry="19.0919"/>
<text text-anchor="middle" x="373" y="-1569.9" font-family="Times Roman,serif" font-size="14.00">GStreamer Read</text>
</g>
<!-- http://www.seasrproject.org/components/melfilterbank/melfilterbank/blinkie19 -->
<g id="node14" class="node"><title>http://www.seasrproject.org/components/melfilterbank/melfilterbank/blinkie19</title>
<ellipse fill="none" stroke="black" cx="287" cy="-1203" rx="68.0887" ry="19.0919"/>
<text text-anchor="middle" x="287" y="-1199.9" font-family="Times Roman,serif" font-size="14.00">MelFilterBank</text>
</g>
<!-- http://ecs.soton.ac.uk/flows/ldblinkie/linkeddatablinkie//instance/gstreamer&#45;read/0&#45;&gt;http://www.seasrproject.org/components/melfilterbank/melfilterbank/blinkie19 -->
<g id="edge10" class="edge"><title>http://ecs.soton.ac.uk/flows/ldblinkie/linkeddatablinkie//instance/gstreamer&#45;read/0&#45;&gt;http://www.seasrproject.org/components/melfilterbank/melfilterbank/blinkie19</title>
<path fill="none" stroke="black" d="M353.031,-1554.53C327.068,-1528.41 285,-1477.91 285,-1425 285,-1425 285,-1425 285,-1351 285,-1309.8 285.784,-1262.17 286.371,-1232.31"/>
<polygon fill="black" stroke="black" points="289.873,-1232.23 286.576,-1222.16 282.874,-1232.08 289.873,-1232.23"/>
</g>
<!-- http://www.seasrproject.org/components/window/window/blinkie19 -->
<g id="node19" class="node"><title>http://www.seasrproject.org/components/window/window/blinkie19</title>
<ellipse fill="none" stroke="black" cx="396" cy="-1499" rx="44.7575" ry="19.0919"/>
<text text-anchor="middle" x="396" y="-1495.9" font-family="Times Roman,serif" font-size="14.00">Window</text>
</g>
<!-- http://ecs.soton.ac.uk/flows/ldblinkie/linkeddatablinkie//instance/gstreamer&#45;read/0&#45;&gt;http://www.seasrproject.org/components/window/window/blinkie19 -->
<g id="edge82" class="edge"><title>http://ecs.soton.ac.uk/flows/ldblinkie/linkeddatablinkie//instance/gstreamer&#45;read/0&#45;&gt;http://www.seasrproject.org/components/window/window/blinkie19</title>
<path fill="none" stroke="black" d="M378.923,-1553.94C381.418,-1545.92 384.375,-1536.4 387.122,-1527.57"/>
<polygon fill="black" stroke="black" points="390.471,-1528.58 390.097,-1517.99 383.787,-1526.5 390.471,-1528.58"/>
</g>
<!-- http://www.seasrproject.org/components/streamfixedwindowmeanandcovariance/streamfixedwindowmeanandcovariance/blinkie19 -->
<g id="node24" class="node"><title>http://www.seasrproject.org/components/streamfixedwindowmeanandcovariance/streamfixedwindowmeanandcovariance/blinkie19</title>
<ellipse fill="none" stroke="black" cx="572" cy="-315" rx="176.777" ry="19.0919"/>
<text text-anchor="middle" x="572" y="-311.9" font-family="Times Roman,serif" font-size="14.00">StreamFixedWindowMeanAndCovariance</text>
</g>
<!-- http://ecs.soton.ac.uk/flows/ldblinkie/linkeddatablinkie//instance/gstreamer&#45;read/0&#45;&gt;http://www.seasrproject.org/components/streamfixedwindowmeanandcovariance/streamfixedwindowmeanandcovariance/blinkie19 -->
<g id="edge18" class="edge"><title>http://ecs.soton.ac.uk/flows/ldblinkie/linkeddatablinkie//instance/gstreamer&#45;read/0&#45;&gt;http://www.seasrproject.org/components/streamfixedwindowmeanandcovariance/streamfixedwindowmeanandcovariance/blinkie19</title>
<path fill="none" stroke="black" d="M432.777,-1561.42C535.595,-1539.78 735,-1489.5 735,-1425 735,-1425 735,-1425 735,-463 735,-417.828 725.808,-402.074 694,-370 679.999,-355.882 661.724,-345.056 643.598,-336.9"/>
<polygon fill="black" stroke="black" points="644.728,-333.577 634.156,-332.875 641.983,-340.016 644.728,-333.577"/>
</g>
<!-- http://www.seasrproject.org/components/dct/dct/blinkie19 -->
<g id="node2" class="node"><title>http://www.seasrproject.org/components/dct/dct/blinkie19</title>
<ellipse fill="none" stroke="black" cx="287" cy="-1055" rx="31.1127" ry="19.0919"/>
<text text-anchor="middle" x="287" y="-1051.9" font-family="Times Roman,serif" font-size="14.00">DCT</text>
</g>
<!-- http://www.seasrproject.org/components/forkx2/forkx2/blinkie19 -->
<g id="node20" class="node"><title>http://www.seasrproject.org/components/forkx2/forkx2/blinkie19</title>
<ellipse fill="none" stroke="black" cx="287" cy="-981" rx="41.2167" ry="19.0919"/>
<text text-anchor="middle" x="287" y="-977.9" font-family="Times Roman,serif" font-size="14.00">ForkX2</text>
</g>
<!-- http://www.seasrproject.org/components/dct/dct/blinkie19&#45;&gt;http://www.seasrproject.org/components/forkx2/forkx2/blinkie19 -->
<g id="edge46" class="edge"><title>http://www.seasrproject.org/components/dct/dct/blinkie19&#45;&gt;http://www.seasrproject.org/components/forkx2/forkx2/blinkie19</title>
<path fill="none" stroke="black" d="M287,-1035.94C287,-1028.15 287,-1018.95 287,-1010.34"/>
<polygon fill="black" stroke="black" points="290.5,-1010.25 287,-1000.25 283.5,-1010.25 290.5,-1010.25"/>
</g>
<!-- http://www.seasrproject.org/components/forkx5/forkx5_1/blinkie19 -->
<g id="node3" class="node"><title>http://www.seasrproject.org/components/forkx5/forkx5_1/blinkie19</title>
<ellipse fill="none" stroke="black" cx="461" cy="-1277" rx="50.9117" ry="19.0919"/>
<text text-anchor="middle" x="461" y="-1273.9" font-family="Times Roman,serif" font-size="14.00">ForkX5_1</text>
</g>
<!-- http://www.seasrproject.org/components/entropy/entropy/blinkie19 -->
<g id="node7" class="node"><title>http://www.seasrproject.org/components/entropy/entropy/blinkie19</title>
<ellipse fill="none" stroke="black" cx="529" cy="-1055" rx="41.9273" ry="19.0919"/>
<text text-anchor="middle" x="529" y="-1051.9" font-family="Times Roman,serif" font-size="14.00">Entropy</text>
</g>
<!-- http://www.seasrproject.org/components/forkx5/forkx5_1/blinkie19&#45;&gt;http://www.seasrproject.org/components/entropy/entropy/blinkie19 -->
<g id="edge34" class="edge"><title>http://www.seasrproject.org/components/forkx5/forkx5_1/blinkie19&#45;&gt;http://www.seasrproject.org/components/entropy/entropy/blinkie19</title>
<path fill="none" stroke="black" d="M466.798,-1258.07C478.741,-1219.08 506.149,-1129.6 520.257,-1083.54"/>
<polygon fill="black" stroke="black" points="523.635,-1084.47 523.217,-1073.88 516.942,-1082.42 523.635,-1084.47"/>
</g>
<!-- http://www.seasrproject.org/components/centroid/centroid/blinkie19 -->
<g id="node12" class="node"><title>http://www.seasrproject.org/components/centroid/centroid/blinkie19</title>
<ellipse fill="none" stroke="black" cx="457" cy="-981" rx="44.7575" ry="19.0919"/>
<text text-anchor="middle" x="457" y="-977.9" font-family="Times Roman,serif" font-size="14.00">Centroid</text>
</g>
<!-- http://www.seasrproject.org/components/forkx5/forkx5_1/blinkie19&#45;&gt;http://www.seasrproject.org/components/centroid/centroid/blinkie19 -->
<g id="edge40" class="edge"><title>http://www.seasrproject.org/components/forkx5/forkx5_1/blinkie19&#45;&gt;http://www.seasrproject.org/components/centroid/centroid/blinkie19</title>
<path fill="none" stroke="black" d="M460.738,-1257.58C460.054,-1206.97 458.213,-1070.78 457.398,-1010.45"/>
<polygon fill="black" stroke="black" points="460.893,-1010.06 457.258,-1000.11 453.894,-1010.15 460.893,-1010.06"/>
</g>
<!-- http://www.seasrproject.org/components/forkx5/forkx5_1/blinkie19&#45;&gt;http://www.seasrproject.org/components/melfilterbank/melfilterbank/blinkie19 -->
<g id="edge78" class="edge"><title>http://www.seasrproject.org/components/forkx5/forkx5_1/blinkie19&#45;&gt;http://www.seasrproject.org/components/melfilterbank/melfilterbank/blinkie19</title>
<path fill="none" stroke="black" d="M427.038,-1262.56C400.444,-1251.25 363.157,-1235.39 333.745,-1222.88"/>
<polygon fill="black" stroke="black" points="335.068,-1219.64 324.496,-1218.95 332.329,-1226.08 335.068,-1219.64"/>
</g>
<!-- http://www.seasrproject.org/components/flux/flux/blinkie19 -->
<g id="node18" class="node"><title>http://www.seasrproject.org/components/flux/flux/blinkie19</title>
<ellipse fill="none" stroke="black" cx="435" cy="-907" rx="28.9914" ry="19.0919"/>
<text text-anchor="middle" x="435" y="-903.9" font-family="Times Roman,serif" font-size="14.00">Flux</text>
</g>
<!-- http://www.seasrproject.org/components/forkx5/forkx5_1/blinkie19&#45;&gt;http://www.seasrproject.org/components/flux/flux/blinkie19 -->
<g id="edge52" class="edge"><title>http://www.seasrproject.org/components/forkx5/forkx5_1/blinkie19&#45;&gt;http://www.seasrproject.org/components/flux/flux/blinkie19</title>
<path fill="none" stroke="black" d="M444.292,-1258.96C421.646,-1232.55 384,-1180.85 384,-1129 384,-1129 384,-1129 384,-1055 384,-1012.81 387.971,-1001.42 403,-962 406.739,-952.194 412.109,-942.091 417.386,-933.263"/>
<polygon fill="black" stroke="black" points="420.47,-934.931 422.778,-924.59 414.526,-931.235 420.47,-934.931"/>
</g>
<!-- http://www.seasrproject.org/components/spectralrolloff/spectralrolloff/blinkie19 -->
<g id="node32" class="node"><title>http://www.seasrproject.org/components/spectralrolloff/spectralrolloff/blinkie19</title>
<ellipse fill="none" stroke="black" cx="596" cy="-1129" rx="72.832" ry="19.0919"/>
<text text-anchor="middle" x="596" y="-1125.9" font-family="Times Roman,serif" font-size="14.00">SpectralRollOff</text>
</g>
<!-- http://www.seasrproject.org/components/forkx5/forkx5_1/blinkie19&#45;&gt;http://www.seasrproject.org/components/spectralrolloff/spectralrolloff/blinkie19 -->
<g id="edge48" class="edge"><title>http://www.seasrproject.org/components/forkx5/forkx5_1/blinkie19&#45;&gt;http://www.seasrproject.org/components/spectralrolloff/spectralrolloff/blinkie19</title>
<path fill="none" stroke="black" d="M477.554,-1258.85C501.209,-1232.92 544.822,-1185.11 572.015,-1155.3"/>
<polygon fill="black" stroke="black" points="574.732,-1157.51 578.885,-1147.76 569.56,-1152.79 574.732,-1157.51"/>
</g>
<!-- http://www.seasrproject.org/components/norm/norm/blinkie19 -->
<g id="node4" class="node"><title>http://www.seasrproject.org/components/norm/norm/blinkie19</title>
<ellipse fill="none" stroke="black" cx="347" cy="-1277" rx="34.1461" ry="19.0919"/>
<text text-anchor="middle" x="347" y="-1273.9" font-family="Times Roman,serif" font-size="14.00">Norm</text>
</g>
<!-- http://www.seasrproject.org/components/concatenate1ddarrays/concatenate1ddarrays_1/blinkie19 -->
<g id="node29" class="node"><title>http://www.seasrproject.org/components/concatenate1ddarrays/concatenate1ddarrays_1/blinkie19</title>
<ellipse fill="none" stroke="black" cx="251" cy="-759" rx="113.137" ry="19.0919"/>
<text text-anchor="middle" x="251" y="-755.9" font-family="Times Roman,serif" font-size="14.00">Concatenate1DDArrays_1</text>
</g>
<!-- http://www.seasrproject.org/components/norm/norm/blinkie19&#45;&gt;http://www.seasrproject.org/components/concatenate1ddarrays/concatenate1ddarrays_1/blinkie19 -->
<g id="edge88" class="edge"><title>http://www.seasrproject.org/components/norm/norm/blinkie19&#45;&gt;http://www.seasrproject.org/components/concatenate1ddarrays/concatenate1ddarrays_1/blinkie19</title>
<path fill="none" stroke="black" d="M313.665,-1273.13C244.964,-1263.11 94,-1229.63 94,-1129 94,-1129 94,-1129 94,-907 94,-861.082 106.626,-846.563 139,-814 153.176,-799.741 171.797,-788.591 189.775,-780.171"/>
<polygon fill="black" stroke="black" points="191.384,-783.285 199.09,-776.014 188.532,-776.893 191.384,-783.285"/>
</g>
<!-- http://ecs.soton.ac.uk/flows/ldblinkie/linkeddatablinkie/instance/applysignalclassifierstovectors/5 -->
<g id="node5" class="node"><title>http://ecs.soton.ac.uk/flows/ldblinkie/linkeddatablinkie/instance/applysignalclassifierstovectors/5</title>
<ellipse fill="none" stroke="black" cx="325" cy="-241" rx="140.213" ry="19.0919"/>
<text text-anchor="middle" x="325" y="-237.9" font-family="Times Roman,serif" font-size="14.00">ApplySignalClassifiersToVectors</text>
</g>
<!-- http://ecs.soton.ac.uk/flows/ldblinkie/linkeddatablinkie/instance/outputrdf/6 -->
<g id="node8" class="node"><title>http://ecs.soton.ac.uk/flows/ldblinkie/linkeddatablinkie/instance/outputrdf/6</title>
<ellipse fill="none" stroke="black" cx="325" cy="-167" rx="56.0679" ry="19.0919"/>
<text text-anchor="middle" x="325" y="-163.9" font-family="Times Roman,serif" font-size="14.00">OutputRDF</text>
</g>
<!-- http://ecs.soton.ac.uk/flows/ldblinkie/linkeddatablinkie/instance/applysignalclassifierstovectors/5&#45;&gt;http://ecs.soton.ac.uk/flows/ldblinkie/linkeddatablinkie/instance/outputrdf/6 -->
<g id="edge80" class="edge"><title>http://ecs.soton.ac.uk/flows/ldblinkie/linkeddatablinkie/instance/applysignalclassifierstovectors/5&#45;&gt;http://ecs.soton.ac.uk/flows/ldblinkie/linkeddatablinkie/instance/outputrdf/6</title>
<path fill="none" stroke="black" d="M319.012,-221.943C318.288,-214.088 318.08,-204.81 318.387,-196.136"/>
<polygon fill="black" stroke="black" points="321.891,-196.19 319.018,-185.992 314.904,-195.756 321.891,-196.19"/>
</g>
<!-- http://ecs.soton.ac.uk/flows/ldblinkie/linkeddatablinkie/instance/applysignalclassifierstovectors/5&#45;&gt;http://ecs.soton.ac.uk/flows/ldblinkie/linkeddatablinkie/instance/outputrdf/6 -->
<g id="edge84" class="edge"><title>http://ecs.soton.ac.uk/flows/ldblinkie/linkeddatablinkie/instance/applysignalclassifierstovectors/5&#45;&gt;http://ecs.soton.ac.uk/flows/ldblinkie/linkeddatablinkie/instance/outputrdf/6</title>
<path fill="none" stroke="black" d="M330.988,-221.943C331.712,-214.088 331.92,-204.81 331.613,-196.136"/>
<polygon fill="black" stroke="black" points="335.096,-195.756 330.982,-185.992 328.109,-196.19 335.096,-195.756"/>
</g>
<!-- http://ecs.soton.ac.uk/flows/ldblinkie/linkeddatablinkie/instance/print&#45;to&#45;console/8 -->
<g id="node6" class="node"><title>http://ecs.soton.ac.uk/flows/ldblinkie/linkeddatablinkie/instance/print&#45;to&#45;console/8</title>
<ellipse fill="none" stroke="black" cx="325" cy="-19" rx="77.7817" ry="19.0919"/>
<text text-anchor="middle" x="325" y="-15.9" font-family="Times Roman,serif" font-size="14.00">Print To Console</text>
</g>
<!-- http://www.seasrproject.org/components/concatenate1ddarrays/concatenate1ddarrays_5/blinkie19 -->
<g id="node30" class="node"><title>http://www.seasrproject.org/components/concatenate1ddarrays/concatenate1ddarrays_5/blinkie19</title>
<ellipse fill="none" stroke="black" cx="537" cy="-463" rx="113.137" ry="19.0919"/>
<text text-anchor="middle" x="537" y="-459.9" font-family="Times Roman,serif" font-size="14.00">Concatenate1DDArrays_5</text>
</g>
<!-- http://www.seasrproject.org/components/entropy/entropy/blinkie19&#45;&gt;http://www.seasrproject.org/components/concatenate1ddarrays/concatenate1ddarrays_5/blinkie19 -->
<g id="edge68" class="edge"><title>http://www.seasrproject.org/components/entropy/entropy/blinkie19&#45;&gt;http://www.seasrproject.org/components/concatenate1ddarrays/concatenate1ddarrays_5/blinkie19</title>
<path fill="none" stroke="black" d="M529.212,-1035.84C529.506,-1007.63 530,-953.251 530,-907 530,-907 530,-907 530,-685 530,-642.813 538.396,-624.082 511,-592 481.409,-557.347 440.955,-593.454 415,-556 405.38,-542.119 405.835,-532.186 415,-518 425.468,-501.798 441.979,-490.32 459.512,-482.206"/>
<polygon fill="black" stroke="black" points="460.925,-485.408 468.747,-478.262 458.176,-478.971 460.925,-485.408"/>
</g>
<!-- http://ecs.soton.ac.uk/flows/ldblinkie/linkeddatablinkie/instance/model&#45;to&#45;rdf&#45;text/7 -->
<g id="node33" class="node"><title>http://ecs.soton.ac.uk/flows/ldblinkie/linkeddatablinkie/instance/model&#45;to&#45;rdf&#45;text/7</title>
<ellipse fill="none" stroke="black" cx="325" cy="-93" rx="91.9239" ry="19.0919"/>
<text text-anchor="middle" x="325" y="-89.9" font-family="Times Roman,serif" font-size="14.00">Model To RDF Text</text>
</g>
<!-- http://ecs.soton.ac.uk/flows/ldblinkie/linkeddatablinkie/instance/outputrdf/6&#45;&gt;http://ecs.soton.ac.uk/flows/ldblinkie/linkeddatablinkie/instance/model&#45;to&#45;rdf&#45;text/7 -->
<g id="edge20" class="edge"><title>http://ecs.soton.ac.uk/flows/ldblinkie/linkeddatablinkie/instance/outputrdf/6&#45;&gt;http://ecs.soton.ac.uk/flows/ldblinkie/linkeddatablinkie/instance/model&#45;to&#45;rdf&#45;text/7</title>
<path fill="none" stroke="black" d="M325,-147.943C325,-140.149 325,-130.954 325,-122.338"/>
<polygon fill="black" stroke="black" points="328.5,-122.249 325,-112.249 321.5,-122.249 328.5,-122.249"/>
</g>
<!-- http://www.seasrproject.org/components/forkx5/forkx5/blinkie19 -->
<g id="node9" class="node"><title>http://www.seasrproject.org/components/forkx5/forkx5/blinkie19</title>
<ellipse fill="none" stroke="black" cx="440" cy="-1425" rx="41.2167" ry="19.0919"/>
<text text-anchor="middle" x="440" y="-1421.9" font-family="Times Roman,serif" font-size="14.00">ForkX5</text>
</g>
<!-- http://www.seasrproject.org/components/forkx5/forkx5/blinkie19&#45;&gt;http://www.seasrproject.org/components/norm/norm/blinkie19 -->
<g id="edge94" class="edge"><title>http://www.seasrproject.org/components/forkx5/forkx5/blinkie19&#45;&gt;http://www.seasrproject.org/components/norm/norm/blinkie19</title>
<path fill="none" stroke="black" d="M411.984,-1410.9C396.077,-1401.47 377.169,-1387.56 366,-1370 353.91,-1350.99 349.314,-1325.77 347.656,-1306.39"/>
<polygon fill="black" stroke="black" points="351.141,-1306.05 347.008,-1296.3 344.156,-1306.5 351.141,-1306.05"/>
</g>
<!-- http://www.seasrproject.org/components/fftrealmagnitude/fftrealmagnitude/blinkie19 -->
<g id="node11" class="node"><title>http://www.seasrproject.org/components/fftrealmagnitude/fftrealmagnitude/blinkie19</title>
<ellipse fill="none" stroke="black" cx="462" cy="-1351" rx="87.1802" ry="19.0919"/>
<text text-anchor="middle" x="462" y="-1347.9" font-family="Times Roman,serif" font-size="14.00">FFTRealMagnitude</text>
</g>
<!-- http://www.seasrproject.org/components/forkx5/forkx5/blinkie19&#45;&gt;http://www.seasrproject.org/components/fftrealmagnitude/fftrealmagnitude/blinkie19 -->
<g id="edge38" class="edge"><title>http://www.seasrproject.org/components/forkx5/forkx5/blinkie19&#45;&gt;http://www.seasrproject.org/components/fftrealmagnitude/fftrealmagnitude/blinkie19</title>
<path fill="none" stroke="black" d="M445.666,-1405.94C448.026,-1398 450.82,-1388.61 453.423,-1379.85"/>
<polygon fill="black" stroke="black" points="456.859,-1380.58 456.354,-1369.99 450.149,-1378.58 456.859,-1380.58"/>
</g>
<!-- http://www.seasrproject.org/components/zerocrossings/zerocrossings/blinkie19 -->
<g id="node27" class="node"><title>http://www.seasrproject.org/components/zerocrossings/zerocrossings/blinkie19</title>
<ellipse fill="none" stroke="black" cx="637" cy="-1203" rx="67.1751" ry="19.0919"/>
<text text-anchor="middle" x="637" y="-1199.9" font-family="Times Roman,serif" font-size="14.00">ZeroCrossings</text>
</g>
<!-- http://www.seasrproject.org/components/forkx5/forkx5/blinkie19&#45;&gt;http://www.seasrproject.org/components/zerocrossings/zerocrossings/blinkie19 -->
<g id="edge60" class="edge"><title>http://www.seasrproject.org/components/forkx5/forkx5/blinkie19&#45;&gt;http://www.seasrproject.org/components/zerocrossings/zerocrossings/blinkie19</title>
<path fill="none" stroke="black" d="M475.819,-1415.46C501.424,-1407.08 535.241,-1392.63 558,-1370 597.331,-1330.89 619.574,-1268.42 629.868,-1231.99"/>
<polygon fill="black" stroke="black" points="633.334,-1232.58 632.572,-1222.01 626.578,-1230.75 633.334,-1232.58"/>
</g>
<!-- http://ecs.soton.ac.uk/flows/ldblinkie/linkeddatablinkie/instance/vectorizestring/0 -->
<g id="node10" class="node"><title>http://ecs.soton.ac.uk/flows/ldblinkie/linkeddatablinkie/instance/vectorizestring/0</title>
<ellipse fill="none" stroke="black" cx="72" cy="-1795" rx="72.1249" ry="19.0919"/>
<text text-anchor="middle" x="72" y="-1791.9" font-family="Times Roman,serif" font-size="14.00">VectorizeString</text>
</g>
<!-- http://ecs.soton.ac.uk/flows/ldblinkie/linkeddatablinkie/instance/forkx2/0 -->
<g id="node13" class="node"><title>http://ecs.soton.ac.uk/flows/ldblinkie/linkeddatablinkie/instance/forkx2/0</title>
<ellipse fill="none" stroke="black" cx="79" cy="-389" rx="41.2167" ry="19.0919"/>
<text text-anchor="middle" x="79" y="-385.9" font-family="Times Roman,serif" font-size="14.00">ForkX2</text>
</g>
<!-- http://ecs.soton.ac.uk/flows/ldblinkie/linkeddatablinkie/instance/vectorizestring/0&#45;&gt;http://ecs.soton.ac.uk/flows/ldblinkie/linkeddatablinkie/instance/forkx2/0 -->
<g id="edge56" class="edge"><title>http://ecs.soton.ac.uk/flows/ldblinkie/linkeddatablinkie/instance/vectorizestring/0&#45;&gt;http://ecs.soton.ac.uk/flows/ldblinkie/linkeddatablinkie/instance/forkx2/0</title>
<path fill="none" stroke="black" d="M68.6068,-1775.91C63.9102,-1747.79 56,-1693.52 56,-1647 56,-1647 56,-1647 56,-537 56,-495.314 65.0195,-447.799 71.7621,-418.102"/>
<polygon fill="black" stroke="black" points="75.2528,-418.546 74.1223,-408.012 68.4367,-416.952 75.2528,-418.546"/>
</g>
<!-- http://www.seasrproject.org/components/fftrealmagnitude/fftrealmagnitude/blinkie19&#45;&gt;http://www.seasrproject.org/components/forkx5/forkx5_1/blinkie19 -->
<g id="edge76" class="edge"><title>http://www.seasrproject.org/components/fftrealmagnitude/fftrealmagnitude/blinkie19&#45;&gt;http://www.seasrproject.org/components/forkx5/forkx5_1/blinkie19</title>
<path fill="none" stroke="black" d="M461.742,-1331.94C461.637,-1324.15 461.513,-1314.95 461.396,-1306.34"/>
<polygon fill="black" stroke="black" points="464.895,-1306.2 461.26,-1296.25 457.896,-1306.3 464.895,-1306.2"/>
</g>
<!-- http://www.seasrproject.org/components/concatenate1ddarrays/concatenate1ddarrays_3/blinkie19 -->
<g id="node25" class="node"><title>http://www.seasrproject.org/components/concatenate1ddarrays/concatenate1ddarrays_3/blinkie19</title>
<ellipse fill="none" stroke="black" cx="389" cy="-611" rx="113.137" ry="19.0919"/>
<text text-anchor="middle" x="389" y="-607.9" font-family="Times Roman,serif" font-size="14.00">Concatenate1DDArrays_3</text>
</g>
<!-- http://www.seasrproject.org/components/centroid/centroid/blinkie19&#45;&gt;http://www.seasrproject.org/components/concatenate1ddarrays/concatenate1ddarrays_3/blinkie19 -->
<g id="edge36" class="edge"><title>http://www.seasrproject.org/components/centroid/centroid/blinkie19&#45;&gt;http://www.seasrproject.org/components/concatenate1ddarrays/concatenate1ddarrays_3/blinkie19</title>
<path fill="none" stroke="black" d="M464.423,-962.179C474.697,-934.387 492,-880.526 492,-833 492,-833 492,-833 492,-759 492,-716.813 496.692,-700.906 473,-666 464.167,-652.986 451.124,-642.312 437.937,-633.947"/>
<polygon fill="black" stroke="black" points="439.673,-630.907 429.294,-628.782 436.082,-636.916 439.673,-630.907"/>
</g>
<!-- http://ecs.soton.ac.uk/flows/ldblinkie/linkeddatablinkie/instance/forkx2/0&#45;&gt;http://ecs.soton.ac.uk/flows/ldblinkie/linkeddatablinkie/instance/outputrdf/6 -->
<g id="edge28" class="edge"><title>http://ecs.soton.ac.uk/flows/ldblinkie/linkeddatablinkie/instance/forkx2/0&#45;&gt;http://ecs.soton.ac.uk/flows/ldblinkie/linkeddatablinkie/instance/outputrdf/6</title>
<path fill="none" stroke="black" d="M79.589,-369.668C80.9303,-350.002 85.1262,-319.199 98,-296 121.187,-254.217 135.421,-247.235 176,-222 205.137,-203.88 241.152,-190.381 270.475,-181.292"/>
<polygon fill="black" stroke="black" points="271.578,-184.615 280.143,-178.378 269.558,-177.912 271.578,-184.615"/>
</g>
<!-- http://ecs.soton.ac.uk/flows/ldblinkie/linkeddatablinkie/instance/readserializedobjectfromurl/1 -->
<g id="node16" class="node"><title>http://ecs.soton.ac.uk/flows/ldblinkie/linkeddatablinkie/instance/readserializedobjectfromurl/1</title>
<ellipse fill="none" stroke="black" cx="242" cy="-315" rx="135.057" ry="19.0919"/>
<text text-anchor="middle" x="242" y="-311.9" font-family="Times Roman,serif" font-size="14.00">ReadSerializedObjectFromURL</text>
</g>
<!-- http://ecs.soton.ac.uk/flows/ldblinkie/linkeddatablinkie/instance/forkx2/0&#45;&gt;http://ecs.soton.ac.uk/flows/ldblinkie/linkeddatablinkie/instance/readserializedobjectfromurl/1 -->
<g id="edge8" class="edge"><title>http://ecs.soton.ac.uk/flows/ldblinkie/linkeddatablinkie/instance/forkx2/0&#45;&gt;http://ecs.soton.ac.uk/flows/ldblinkie/linkeddatablinkie/instance/readserializedobjectfromurl/1</title>
<path fill="none" stroke="black" d="M108.518,-375.599C131.907,-364.981 165.099,-349.912 192.532,-337.458"/>
<polygon fill="black" stroke="black" points="194.311,-340.494 201.97,-333.173 191.418,-334.12 194.311,-340.494"/>
</g>
<!-- http://www.seasrproject.org/components/logn/logn/blinkie19 -->
<g id="node22" class="node"><title>http://www.seasrproject.org/components/logn/logn/blinkie19</title>
<ellipse fill="none" stroke="black" cx="287" cy="-1129" rx="33.9411" ry="19.0919"/>
<text text-anchor="middle" x="287" y="-1125.9" font-family="Times Roman,serif" font-size="14.00">LogN</text>
</g>
<!-- http://www.seasrproject.org/components/melfilterbank/melfilterbank/blinkie19&#45;&gt;http://www.seasrproject.org/components/logn/logn/blinkie19 -->
<g id="edge92" class="edge"><title>http://www.seasrproject.org/components/melfilterbank/melfilterbank/blinkie19&#45;&gt;http://www.seasrproject.org/components/logn/logn/blinkie19</title>
<path fill="none" stroke="black" d="M287,-1183.94C287,-1176.15 287,-1166.95 287,-1158.34"/>
<polygon fill="black" stroke="black" points="290.5,-1158.25 287,-1148.25 283.5,-1158.25 290.5,-1158.25"/>
</g>
<!-- http://www.seasrproject.org/components/concatenate1ddarrays/concatenate1ddarrays/blinkie19 -->
<g id="node15" class="node"><title>http://www.seasrproject.org/components/concatenate1ddarrays/concatenate1ddarrays/blinkie19</title>
<ellipse fill="none" stroke="black" cx="251" cy="-833" rx="103.238" ry="19.0919"/>
<text text-anchor="middle" x="251" y="-829.9" font-family="Times Roman,serif" font-size="14.00">Concatenate1DDArrays</text>
</g>
<!-- http://www.seasrproject.org/components/concatenate1ddarrays/concatenate1ddarrays/blinkie19&#45;&gt;http://www.seasrproject.org/components/concatenate1ddarrays/concatenate1ddarrays_1/blinkie19 -->
<g id="edge54" class="edge"><title>http://www.seasrproject.org/components/concatenate1ddarrays/concatenate1ddarrays/blinkie19&#45;&gt;http://www.seasrproject.org/components/concatenate1ddarrays/concatenate1ddarrays_1/blinkie19</title>
<path fill="none" stroke="black" d="M251,-813.943C251,-806.149 251,-796.954 251,-788.338"/>
<polygon fill="black" stroke="black" points="254.5,-788.249 251,-778.249 247.5,-788.249 254.5,-788.249"/>
</g>
<!-- http://ecs.soton.ac.uk/flows/ldblinkie/linkeddatablinkie/instance/readserializedobjectfromurl/1&#45;&gt;http://ecs.soton.ac.uk/flows/ldblinkie/linkeddatablinkie/instance/applysignalclassifierstovectors/5 -->
<g id="edge42" class="edge"><title>http://ecs.soton.ac.uk/flows/ldblinkie/linkeddatablinkie/instance/readserializedobjectfromurl/1&#45;&gt;http://ecs.soton.ac.uk/flows/ldblinkie/linkeddatablinkie/instance/applysignalclassifierstovectors/5</title>
<path fill="none" stroke="black" d="M263.375,-295.943C273.346,-287.053 285.364,-276.338 296.128,-266.741"/>
<polygon fill="black" stroke="black" points="298.563,-269.26 303.698,-259.992 293.904,-264.035 298.563,-269.26"/>
</g>
<!-- http://ecs.soton.ac.uk/flows/ldblinkie/linkeddatablinkie//instance/url&#45;to&#45;signal&#45;object/1 -->
<g id="node17" class="node"><title>http://ecs.soton.ac.uk/flows/ldblinkie/linkeddatablinkie//instance/url&#45;to&#45;signal&#45;object/1</title>
<ellipse fill="none" stroke="black" cx="364" cy="-1647" rx="98.9949" ry="19.0919"/>
<text text-anchor="middle" x="364" y="-1643.9" font-family="Times Roman,serif" font-size="14.00">URL To Signal Object</text>
</g>
<!-- http://ecs.soton.ac.uk/flows/ldblinkie/linkeddatablinkie//instance/url&#45;to&#45;signal&#45;object/1&#45;&gt;http://ecs.soton.ac.uk/flows/ldblinkie/linkeddatablinkie//instance/gstreamer&#45;read/0 -->
<g id="edge58" class="edge"><title>http://ecs.soton.ac.uk/flows/ldblinkie/linkeddatablinkie//instance/url&#45;to&#45;signal&#45;object/1&#45;&gt;http://ecs.soton.ac.uk/flows/ldblinkie/linkeddatablinkie//instance/gstreamer&#45;read/0</title>
<path fill="none" stroke="black" d="M366.318,-1627.94C367.273,-1620.09 368.401,-1610.81 369.456,-1602.14"/>
<polygon fill="black" stroke="black" points="372.957,-1602.34 370.69,-1591.99 366.008,-1601.5 372.957,-1602.34"/>
</g>
<!-- http://www.seasrproject.org/components/concatenate1ddarrays/concatenate1ddarrays_2/blinkie19 -->
<g id="node35" class="node"><title>http://www.seasrproject.org/components/concatenate1ddarrays/concatenate1ddarrays_2/blinkie19</title>
<ellipse fill="none" stroke="black" cx="351" cy="-685" rx="113.137" ry="19.0919"/>
<text text-anchor="middle" x="351" y="-681.9" font-family="Times Roman,serif" font-size="14.00">Concatenate1DDArrays_2</text>
</g>
<!-- http://www.seasrproject.org/components/flux/flux/blinkie19&#45;&gt;http://www.seasrproject.org/components/concatenate1ddarrays/concatenate1ddarrays_2/blinkie19 -->
<g id="edge12" class="edge"><title>http://www.seasrproject.org/components/flux/flux/blinkie19&#45;&gt;http://www.seasrproject.org/components/concatenate1ddarrays/concatenate1ddarrays_2/blinkie19</title>
<path fill="none" stroke="black" d="M428.27,-888.409C417.046,-857.51 393.694,-793.672 373,-740 369.676,-731.379 365.976,-722.035 362.572,-713.537"/>
<polygon fill="black" stroke="black" points="365.733,-712.016 358.754,-704.044 359.238,-714.628 365.733,-712.016"/>
</g>
<!-- http://www.seasrproject.org/components/window/window/blinkie19&#45;&gt;http://www.seasrproject.org/components/forkx5/forkx5/blinkie19 -->
<g id="edge96" class="edge"><title>http://www.seasrproject.org/components/window/window/blinkie19&#45;&gt;http://www.seasrproject.org/components/forkx5/forkx5/blinkie19</title>
<path fill="none" stroke="black" d="M407.103,-1480.33C412.196,-1471.76 418.332,-1461.44 423.918,-1452.05"/>
<polygon fill="black" stroke="black" points="426.95,-1453.8 429.053,-1443.41 420.934,-1450.22 426.95,-1453.8"/>
</g>
<!-- http://www.seasrproject.org/components/forkx2/forkx2/blinkie19&#45;&gt;http://www.seasrproject.org/components/concatenate1ddarrays/concatenate1ddarrays/blinkie19 -->
<g id="edge74" class="edge"><title>http://www.seasrproject.org/components/forkx2/forkx2/blinkie19&#45;&gt;http://www.seasrproject.org/components/concatenate1ddarrays/concatenate1ddarrays/blinkie19</title>
<path fill="none" stroke="black" d="M315.937,-967.252C331.794,-958.013 350.006,-944.189 359,-926 366.486,-910.861 367.826,-902.399 359,-888 349.49,-872.485 334.08,-861.176 317.841,-853.001"/>
<polygon fill="black" stroke="black" points="319.309,-849.824 308.767,-848.776 316.354,-856.17 319.309,-849.824"/>
</g>
<!-- http://www.seasrproject.org/components/differencebetweenframes/differencebetweenframes/blinkie19 -->
<g id="node26" class="node"><title>http://www.seasrproject.org/components/differencebetweenframes/differencebetweenframes/blinkie19</title>
<ellipse fill="none" stroke="black" cx="236" cy="-907" rx="114.051" ry="19.0919"/>
<text text-anchor="middle" x="236" y="-903.9" font-family="Times Roman,serif" font-size="14.00">DifferenceBetweenFrames</text>
</g>
<!-- http://www.seasrproject.org/components/forkx2/forkx2/blinkie19&#45;&gt;http://www.seasrproject.org/components/differencebetweenframes/differencebetweenframes/blinkie19 -->
<g id="edge26" class="edge"><title>http://www.seasrproject.org/components/forkx2/forkx2/blinkie19&#45;&gt;http://www.seasrproject.org/components/differencebetweenframes/differencebetweenframes/blinkie19</title>
<path fill="none" stroke="black" d="M274.393,-962.708C268.521,-954.188 261.412,-943.872 254.915,-934.445"/>
<polygon fill="black" stroke="black" points="257.73,-932.362 249.173,-926.114 251.966,-936.334 257.73,-932.362"/>
</g>
<!-- http://ecs.soton.ac.uk/flows/ldblinkie/linkeddatablinkie//instance/push&#45;string/7 -->
<g id="node21" class="node"><title>http://ecs.soton.ac.uk/flows/ldblinkie/linkeddatablinkie//instance/push&#45;string/7</title>
<ellipse fill="none" stroke="black" cx="170" cy="-1943" rx="56.0679" ry="19.0919"/>
<text text-anchor="middle" x="170" y="-1939.9" font-family="Times Roman,serif" font-size="14.00">Push String</text>
</g>
<!-- http://ecs.soton.ac.uk/flows/ldblinkie/linkeddatablinkie//instance/splitstring/0 -->
<g id="node31" class="node"><title>http://ecs.soton.ac.uk/flows/ldblinkie/linkeddatablinkie//instance/splitstring/0</title>
<ellipse fill="none" stroke="black" cx="170" cy="-1869" rx="53.033" ry="19.0919"/>
<text text-anchor="middle" x="170" y="-1865.9" font-family="Times Roman,serif" font-size="14.00">SplitString</text>
</g>
<!-- http://ecs.soton.ac.uk/flows/ldblinkie/linkeddatablinkie//instance/push&#45;string/7&#45;&gt;http://ecs.soton.ac.uk/flows/ldblinkie/linkeddatablinkie//instance/splitstring/0 -->
<g id="edge6" class="edge"><title>http://ecs.soton.ac.uk/flows/ldblinkie/linkeddatablinkie//instance/push&#45;string/7&#45;&gt;http://ecs.soton.ac.uk/flows/ldblinkie/linkeddatablinkie//instance/splitstring/0</title>
<path fill="none" stroke="black" d="M170,-1923.94C170,-1916.15 170,-1906.95 170,-1898.34"/>
<polygon fill="black" stroke="black" points="173.5,-1898.25 170,-1888.25 166.5,-1898.25 173.5,-1898.25"/>
</g>
<!-- http://www.seasrproject.org/components/logn/logn/blinkie19&#45;&gt;http://www.seasrproject.org/components/dct/dct/blinkie19 -->
<g id="edge30" class="edge"><title>http://www.seasrproject.org/components/logn/logn/blinkie19&#45;&gt;http://www.seasrproject.org/components/dct/dct/blinkie19</title>
<path fill="none" stroke="black" d="M287,-1109.94C287,-1102.15 287,-1092.95 287,-1084.34"/>
<polygon fill="black" stroke="black" points="290.5,-1084.25 287,-1074.25 283.5,-1084.25 290.5,-1084.25"/>
</g>
<!-- http://ecs.soton.ac.uk/flows/ldblinkie/linkeddatablinkie//instance/getdetails/1 -->
<g id="node23" class="node"><title>http://ecs.soton.ac.uk/flows/ldblinkie/linkeddatablinkie//instance/getdetails/1</title>
<ellipse fill="none" stroke="black" cx="300" cy="-1721" rx="51.8276" ry="19.0919"/>
<text text-anchor="middle" x="300" y="-1717.9" font-family="Times Roman,serif" font-size="14.00">GetDetails</text>
</g>
<!-- http://ecs.soton.ac.uk/flows/ldblinkie/linkeddatablinkie//instance/getdetails/1&#45;&gt;http://ecs.soton.ac.uk/flows/ldblinkie/linkeddatablinkie//instance/url&#45;to&#45;signal&#45;object/1 -->
<g id="edge64" class="edge"><title>http://ecs.soton.ac.uk/flows/ldblinkie/linkeddatablinkie//instance/getdetails/1&#45;&gt;http://ecs.soton.ac.uk/flows/ldblinkie/linkeddatablinkie//instance/url&#45;to&#45;signal&#45;object/1</title>
<path fill="none" stroke="black" d="M315.82,-1702.71C323.397,-1693.95 332.616,-1683.29 340.953,-1673.65"/>
<polygon fill="black" stroke="black" points="343.799,-1675.71 347.694,-1665.85 338.505,-1671.13 343.799,-1675.71"/>
</g>
<!-- http://www.seasrproject.org/components/streamfixedwindowmeanandcovariance/streamfixedwindowmeanandcovariance/blinkie19&#45;&gt;http://ecs.soton.ac.uk/flows/ldblinkie/linkeddatablinkie/instance/applysignalclassifierstovectors/5 -->
<g id="edge90" class="edge"><title>http://www.seasrproject.org/components/streamfixedwindowmeanandcovariance/streamfixedwindowmeanandcovariance/blinkie19&#45;&gt;http://ecs.soton.ac.uk/flows/ldblinkie/linkeddatablinkie/instance/applysignalclassifierstovectors/5</title>
<path fill="none" stroke="black" d="M512.208,-297.087C476.166,-286.289 430.155,-272.504 392.767,-261.303"/>
<polygon fill="black" stroke="black" points="393.548,-257.883 382.964,-258.366 391.539,-264.589 393.548,-257.883"/>
</g>
<!-- http://www.seasrproject.org/components/streamfixedwindowmeanandcovariance/streamfixedwindowmeanandcovariance/blinkie19&#45;&gt;http://ecs.soton.ac.uk/flows/ldblinkie/linkeddatablinkie/instance/outputrdf/6 -->
<g id="edge22" class="edge"><title>http://www.seasrproject.org/components/streamfixedwindowmeanandcovariance/streamfixedwindowmeanandcovariance/blinkie19&#45;&gt;http://ecs.soton.ac.uk/flows/ldblinkie/linkeddatablinkie/instance/outputrdf/6</title>
<path fill="none" stroke="black" d="M556.112,-295.849C538.075,-275.166 506.864,-242.44 474,-222 444.864,-203.878 408.849,-190.379 379.526,-181.29"/>
<polygon fill="black" stroke="black" points="380.443,-177.911 369.858,-178.376 378.423,-184.613 380.443,-177.911"/>
</g>
<!-- http://www.seasrproject.org/components/concatenate1ddarrays/concatenate1ddarrays_4/blinkie19 -->
<g id="node28" class="node"><title>http://www.seasrproject.org/components/concatenate1ddarrays/concatenate1ddarrays_4/blinkie19</title>
<ellipse fill="none" stroke="black" cx="537" cy="-537" rx="113.137" ry="19.0919"/>
<text text-anchor="middle" x="537" y="-533.9" font-family="Times Roman,serif" font-size="14.00">Concatenate1DDArrays_4</text>
</g>
<!-- http://www.seasrproject.org/components/concatenate1ddarrays/concatenate1ddarrays_3/blinkie19&#45;&gt;http://www.seasrproject.org/components/concatenate1ddarrays/concatenate1ddarrays_4/blinkie19 -->
<g id="edge86" class="edge"><title>http://www.seasrproject.org/components/concatenate1ddarrays/concatenate1ddarrays_3/blinkie19&#45;&gt;http://www.seasrproject.org/components/concatenate1ddarrays/concatenate1ddarrays_4/blinkie19</title>
<path fill="none" stroke="black" d="M425.205,-592.898C445.258,-582.871 470.372,-570.314 491.714,-559.643"/>
<polygon fill="black" stroke="black" points="493.534,-562.646 500.913,-555.044 490.403,-556.385 493.534,-562.646"/>
</g>
<!-- http://www.seasrproject.org/components/differencebetweenframes/differencebetweenframes/blinkie19&#45;&gt;http://www.seasrproject.org/components/concatenate1ddarrays/concatenate1ddarrays/blinkie19 -->
<g id="edge2" class="edge"><title>http://www.seasrproject.org/components/differencebetweenframes/differencebetweenframes/blinkie19&#45;&gt;http://www.seasrproject.org/components/concatenate1ddarrays/concatenate1ddarrays/blinkie19</title>
<path fill="none" stroke="black" d="M239.863,-887.943C241.473,-880.002 243.377,-870.606 245.152,-861.851"/>
<polygon fill="black" stroke="black" points="248.594,-862.488 247.15,-851.992 241.733,-861.098 248.594,-862.488"/>
</g>
<!-- http://www.seasrproject.org/components/zerocrossings/zerocrossings/blinkie19&#45;&gt;http://www.seasrproject.org/components/concatenate1ddarrays/concatenate1ddarrays_4/blinkie19 -->
<g id="edge16" class="edge"><title>http://www.seasrproject.org/components/zerocrossings/zerocrossings/blinkie19&#45;&gt;http://www.seasrproject.org/components/concatenate1ddarrays/concatenate1ddarrays_4/blinkie19</title>
<path fill="none" stroke="black" d="M654.059,-1184.47C662.471,-1174.37 672.061,-1161.26 678,-1148 695.243,-1109.5 697,-1097.19 697,-1055 697,-1055 697,-1055 697,-685 697,-625.226 636.077,-582.867 589.418,-559.191"/>
<polygon fill="black" stroke="black" points="590.816,-555.978 580.298,-554.705 587.727,-562.259 590.816,-555.978"/>
</g>
<!-- http://www.seasrproject.org/components/concatenate1ddarrays/concatenate1ddarrays_4/blinkie19&#45;&gt;http://www.seasrproject.org/components/concatenate1ddarrays/concatenate1ddarrays_5/blinkie19 -->
<g id="edge62" class="edge"><title>http://www.seasrproject.org/components/concatenate1ddarrays/concatenate1ddarrays_4/blinkie19&#45;&gt;http://www.seasrproject.org/components/concatenate1ddarrays/concatenate1ddarrays_5/blinkie19</title>
<path fill="none" stroke="black" d="M537,-517.943C537,-510.149 537,-500.954 537,-492.338"/>
<polygon fill="black" stroke="black" points="540.5,-492.249 537,-482.249 533.5,-492.249 540.5,-492.249"/>
</g>
<!-- http://www.seasrproject.org/components/concatenate1ddarrays/concatenate1ddarrays_1/blinkie19&#45;&gt;http://www.seasrproject.org/components/concatenate1ddarrays/concatenate1ddarrays_2/blinkie19 -->
<g id="edge44" class="edge"><title>http://www.seasrproject.org/components/concatenate1ddarrays/concatenate1ddarrays_1/blinkie19&#45;&gt;http://www.seasrproject.org/components/concatenate1ddarrays/concatenate1ddarrays_2/blinkie19</title>
<path fill="none" stroke="black" d="M276.234,-740.327C288.788,-731.037 304.128,-719.685 317.639,-709.687"/>
<polygon fill="black" stroke="black" points="319.817,-712.429 325.774,-703.667 315.653,-706.802 319.817,-712.429"/>
</g>
<!-- http://www.seasrproject.org/components/concatenate1ddarrays/concatenate1ddarrays_6/blinkie19 -->
<g id="node34" class="node"><title>http://www.seasrproject.org/components/concatenate1ddarrays/concatenate1ddarrays_6/blinkie19</title>
<ellipse fill="none" stroke="black" cx="572" cy="-389" rx="113.137" ry="19.0919"/>
<text text-anchor="middle" x="572" y="-385.9" font-family="Times Roman,serif" font-size="14.00">Concatenate1DDArrays_6</text>
</g>
<!-- http://www.seasrproject.org/components/concatenate1ddarrays/concatenate1ddarrays_5/blinkie19&#45;&gt;http://www.seasrproject.org/components/concatenate1ddarrays/concatenate1ddarrays_6/blinkie19 -->
<g id="edge72" class="edge"><title>http://www.seasrproject.org/components/concatenate1ddarrays/concatenate1ddarrays_5/blinkie19&#45;&gt;http://www.seasrproject.org/components/concatenate1ddarrays/concatenate1ddarrays_6/blinkie19</title>
<path fill="none" stroke="black" d="M546.013,-443.943C549.851,-435.829 554.407,-426.197 558.624,-417.28"/>
<polygon fill="black" stroke="black" points="561.905,-418.529 563.017,-407.992 555.578,-415.536 561.905,-418.529"/>
</g>
<!-- http://ecs.soton.ac.uk/flows/ldblinkie/linkeddatablinkie//instance/splitstring/0&#45;&gt;http://ecs.soton.ac.uk/flows/ldblinkie/linkeddatablinkie/instance/vectorizestring/0 -->
<g id="edge32" class="edge"><title>http://ecs.soton.ac.uk/flows/ldblinkie/linkeddatablinkie//instance/splitstring/0&#45;&gt;http://ecs.soton.ac.uk/flows/ldblinkie/linkeddatablinkie/instance/vectorizestring/0</title>
<path fill="none" stroke="black" d="M146.775,-1851.46C134.12,-1841.91 118.257,-1829.93 104.402,-1819.47"/>
<polygon fill="black" stroke="black" points="106.171,-1816.42 96.0813,-1813.18 101.953,-1822 106.171,-1816.42"/>
</g>
<!-- http://ecs.soton.ac.uk/flows/ldblinkie/linkeddatablinkie//instance/read&#45;semantic&#45;model/0 -->
<g id="node36" class="node"><title>http://ecs.soton.ac.uk/flows/ldblinkie/linkeddatablinkie//instance/read&#45;semantic&#45;model/0</title>
<ellipse fill="none" stroke="black" cx="268" cy="-1795" rx="97.7889" ry="19.0919"/>
<text text-anchor="middle" x="268" y="-1791.9" font-family="Times Roman,serif" font-size="14.00">Read Semantic Model</text>
</g>
<!-- http://ecs.soton.ac.uk/flows/ldblinkie/linkeddatablinkie//instance/splitstring/0&#45;&gt;http://ecs.soton.ac.uk/flows/ldblinkie/linkeddatablinkie//instance/read&#45;semantic&#45;model/0 -->
<g id="edge50" class="edge"><title>http://ecs.soton.ac.uk/flows/ldblinkie/linkeddatablinkie//instance/splitstring/0&#45;&gt;http://ecs.soton.ac.uk/flows/ldblinkie/linkeddatablinkie//instance/read&#45;semantic&#45;model/0</title>
<path fill="none" stroke="black" d="M193.225,-1851.46C205.787,-1841.98 221.508,-1830.11 235.29,-1819.7"/>
<polygon fill="black" stroke="black" points="237.703,-1822.26 243.575,-1813.44 233.485,-1816.68 237.703,-1822.26"/>
</g>
<!-- http://www.seasrproject.org/components/spectralrolloff/spectralrolloff/blinkie19&#45;&gt;http://www.seasrproject.org/components/concatenate1ddarrays/concatenate1ddarrays_6/blinkie19 -->
<g id="edge24" class="edge"><title>http://www.seasrproject.org/components/spectralrolloff/spectralrolloff/blinkie19&#45;&gt;http://www.seasrproject.org/components/concatenate1ddarrays/concatenate1ddarrays_6/blinkie19</title>
<path fill="none" stroke="black" d="M609.982,-1110C628.542,-1082.84 659,-1030.71 659,-981 659,-981 659,-981 659,-685 659,-577.889 710.683,-537.817 659,-444 651.503,-430.391 639.061,-419.681 625.9,-411.471"/>
<polygon fill="black" stroke="black" points="627.599,-408.411 617.191,-406.432 624.093,-414.47 627.599,-408.411"/>
</g>
<!-- http://ecs.soton.ac.uk/flows/ldblinkie/linkeddatablinkie/instance/model&#45;to&#45;rdf&#45;text/7&#45;&gt;http://ecs.soton.ac.uk/flows/ldblinkie/linkeddatablinkie/instance/print&#45;to&#45;console/8 -->
<g id="edge14" class="edge"><title>http://ecs.soton.ac.uk/flows/ldblinkie/linkeddatablinkie/instance/model&#45;to&#45;rdf&#45;text/7&#45;&gt;http://ecs.soton.ac.uk/flows/ldblinkie/linkeddatablinkie/instance/print&#45;to&#45;console/8</title>
<path fill="none" stroke="black" d="M325,-73.9432C325,-66.1493 325,-56.9538 325,-48.3381"/>
<polygon fill="black" stroke="black" points="328.5,-48.2494 325,-38.2495 321.5,-48.2495 328.5,-48.2494"/>
</g>
<!-- http://www.seasrproject.org/components/concatenate1ddarrays/concatenate1ddarrays_6/blinkie19&#45;&gt;http://www.seasrproject.org/components/streamfixedwindowmeanandcovariance/streamfixedwindowmeanandcovariance/blinkie19 -->
<g id="edge70" class="edge"><title>http://www.seasrproject.org/components/concatenate1ddarrays/concatenate1ddarrays_6/blinkie19&#45;&gt;http://www.seasrproject.org/components/streamfixedwindowmeanandcovariance/streamfixedwindowmeanandcovariance/blinkie19</title>
<path fill="none" stroke="black" d="M572,-369.943C572,-362.149 572,-352.954 572,-344.338"/>
<polygon fill="black" stroke="black" points="575.5,-344.249 572,-334.249 568.5,-344.249 575.5,-344.249"/>
</g>
<!-- http://www.seasrproject.org/components/concatenate1ddarrays/concatenate1ddarrays_2/blinkie19&#45;&gt;http://www.seasrproject.org/components/concatenate1ddarrays/concatenate1ddarrays_3/blinkie19 -->
<g id="edge4" class="edge"><title>http://www.seasrproject.org/components/concatenate1ddarrays/concatenate1ddarrays_2/blinkie19&#45;&gt;http://www.seasrproject.org/components/concatenate1ddarrays/concatenate1ddarrays_3/blinkie19</title>
<path fill="none" stroke="black" d="M360.786,-665.943C364.997,-657.743 370.004,-647.992 374.624,-638.996"/>
<polygon fill="black" stroke="black" points="377.793,-640.487 379.247,-629.992 371.566,-637.289 377.793,-640.487"/>
</g>
<!-- http://ecs.soton.ac.uk/flows/ldblinkie/linkeddatablinkie//instance/read&#45;semantic&#45;model/0&#45;&gt;http://ecs.soton.ac.uk/flows/ldblinkie/linkeddatablinkie//instance/getdetails/1 -->
<g id="edge66" class="edge"><title>http://ecs.soton.ac.uk/flows/ldblinkie/linkeddatablinkie//instance/read&#45;semantic&#45;model/0&#45;&gt;http://ecs.soton.ac.uk/flows/ldblinkie/linkeddatablinkie//instance/getdetails/1</title>
<path fill="none" stroke="black" d="M276.241,-1775.94C279.749,-1767.83 283.915,-1758.2 287.771,-1749.28"/>
<polygon fill="black" stroke="black" points="291.03,-1750.56 291.787,-1739.99 284.605,-1747.78 291.03,-1750.56"/>
</g>
</g>
</svg>
