<?xml version="1.0" encoding="UTF-8" standalone="no"?>
<!DOCTYPE svg PUBLIC "-//W3C//DTD SVG 1.1//EN"
 "http://www.w3.org/Graphics/SVG/1.1/DTD/svg11.dtd">
<!-- Generated by graphviz version 2.26.0 (20091210.2329)
 -->
<!-- Title: workflow Pages: 1 -->
<svg width="790pt" height="2044pt"
 viewBox="0.00 0.00 790.00 2044.00" xmlns="http://www.w3.org/2000/svg" xmlns:xlink="http://www.w3.org/1999/xlink">
<g id="graph1" class="graph" transform="scale(1 1) rotate(0) translate(4 2040)">
<title>workflow</title>
<polygon fill="white" stroke="white" points="-4,5 -4,-2040 787,-2040 787,5 -4,5"/>
<!-- http://ecs.soton.ac.uk/flows/ldblinkie/linkeddatablinkie//instance/gstreamer&#45;read/0 -->
<g id="node1" class="node"><title>http://ecs.soton.ac.uk/flows/ldblinkie/linkeddatablinkie//instance/gstreamer&#45;read/0</title>
<ellipse fill="none" stroke="black" cx="554" cy="-1573" rx="75.1594" ry="19.0919"/>
<text text-anchor="middle" x="554" y="-1569.9" font-family="Times Roman,serif" font-size="14.00">GStreamer Read</text>
</g>
<!-- http://www.seasrproject.org/components/melfilterbank/melfilterbank/blinkie19 -->
<g id="node15" class="node"><title>http://www.seasrproject.org/components/melfilterbank/melfilterbank/blinkie19</title>
<ellipse fill="none" stroke="black" cx="455" cy="-1203" rx="68.0887" ry="19.0919"/>
<text text-anchor="middle" x="455" y="-1199.9" font-family="Times Roman,serif" font-size="14.00">MelFilterBank</text>
</g>
<!-- http://ecs.soton.ac.uk/flows/ldblinkie/linkeddatablinkie//instance/gstreamer&#45;read/0&#45;&gt;http://www.seasrproject.org/components/melfilterbank/melfilterbank/blinkie19 -->
<g id="edge8" class="edge"><title>http://ecs.soton.ac.uk/flows/ldblinkie/linkeddatablinkie//instance/gstreamer&#45;read/0&#45;&gt;http://www.seasrproject.org/components/melfilterbank/melfilterbank/blinkie19</title>
<path fill="none" stroke="black" d="M531.892,-1554.74C521.045,-1544.81 508.516,-1531.77 500,-1518 477.011,-1480.82 468,-1468.71 468,-1425 468,-1425 468,-1425 468,-1351 468,-1309.65 462.902,-1262.05 459.091,-1232.24"/>
<polygon fill="black" stroke="black" points="462.532,-1231.57 457.757,-1222.11 455.592,-1232.48 462.532,-1231.57"/>
</g>
<!-- http://www.seasrproject.org/components/window/window/blinkie19 -->
<g id="node19" class="node"><title>http://www.seasrproject.org/components/window/window/blinkie19</title>
<ellipse fill="none" stroke="black" cx="554" cy="-1499" rx="44.7575" ry="19.0919"/>
<text text-anchor="middle" x="554" y="-1495.9" font-family="Times Roman,serif" font-size="14.00">Window</text>
</g>
<!-- http://ecs.soton.ac.uk/flows/ldblinkie/linkeddatablinkie//instance/gstreamer&#45;read/0&#45;&gt;http://www.seasrproject.org/components/window/window/blinkie19 -->
<g id="edge80" class="edge"><title>http://ecs.soton.ac.uk/flows/ldblinkie/linkeddatablinkie//instance/gstreamer&#45;read/0&#45;&gt;http://www.seasrproject.org/components/window/window/blinkie19</title>
<path fill="none" stroke="black" d="M554,-1553.94C554,-1546.15 554,-1536.95 554,-1528.34"/>
<polygon fill="black" stroke="black" points="557.5,-1528.25 554,-1518.25 550.5,-1528.25 557.5,-1528.25"/>
</g>
<!-- http://www.seasrproject.org/components/streamfixedwindowmeanandcovariance/streamfixedwindowmeanandcovariance/blinkie19 -->
<g id="node24" class="node"><title>http://www.seasrproject.org/components/streamfixedwindowmeanandcovariance/streamfixedwindowmeanandcovariance/blinkie19</title>
<ellipse fill="none" stroke="black" cx="452" cy="-315" rx="176.777" ry="19.0919"/>
<text text-anchor="middle" x="452" y="-311.9" font-family="Times Roman,serif" font-size="14.00">StreamFixedWindowMeanAndCovariance</text>
</g>
<!-- http://ecs.soton.ac.uk/flows/ldblinkie/linkeddatablinkie//instance/gstreamer&#45;read/0&#45;&gt;http://www.seasrproject.org/components/streamfixedwindowmeanandcovariance/streamfixedwindowmeanandcovariance/blinkie19 -->
<g id="edge18" class="edge"><title>http://ecs.soton.ac.uk/flows/ldblinkie/linkeddatablinkie//instance/gstreamer&#45;read/0&#45;&gt;http://www.seasrproject.org/components/streamfixedwindowmeanandcovariance/streamfixedwindowmeanandcovariance/blinkie19</title>
<path fill="none" stroke="black" d="M602.93,-1558.53C659.225,-1538.52 744,-1496.5 744,-1425 744,-1425 744,-1425 744,-463 744,-385.469 661.085,-348.541 583.622,-330.959"/>
<polygon fill="black" stroke="black" points="584.235,-327.511 573.72,-328.808 582.749,-334.351 584.235,-327.511"/>
</g>
<!-- http://www.seasrproject.org/components/dct/dct/blinkie19 -->
<g id="node2" class="node"><title>http://www.seasrproject.org/components/dct/dct/blinkie19</title>
<ellipse fill="none" stroke="black" cx="455" cy="-1055" rx="31.1127" ry="19.0919"/>
<text text-anchor="middle" x="455" y="-1051.9" font-family="Times Roman,serif" font-size="14.00">DCT</text>
</g>
<!-- http://www.seasrproject.org/components/forkx2/forkx2/blinkie19 -->
<g id="node20" class="node"><title>http://www.seasrproject.org/components/forkx2/forkx2/blinkie19</title>
<ellipse fill="none" stroke="black" cx="455" cy="-981" rx="41.2167" ry="19.0919"/>
<text text-anchor="middle" x="455" y="-977.9" font-family="Times Roman,serif" font-size="14.00">ForkX2</text>
</g>
<!-- http://www.seasrproject.org/components/dct/dct/blinkie19&#45;&gt;http://www.seasrproject.org/components/forkx2/forkx2/blinkie19 -->
<g id="edge44" class="edge"><title>http://www.seasrproject.org/components/dct/dct/blinkie19&#45;&gt;http://www.seasrproject.org/components/forkx2/forkx2/blinkie19</title>
<path fill="none" stroke="black" d="M455,-1035.94C455,-1028.15 455,-1018.95 455,-1010.34"/>
<polygon fill="black" stroke="black" points="458.5,-1010.25 455,-1000.25 451.5,-1010.25 458.5,-1010.25"/>
</g>
<!-- http://www.seasrproject.org/components/forkx5/forkx5_1/blinkie19 -->
<g id="node3" class="node"><title>http://www.seasrproject.org/components/forkx5/forkx5_1/blinkie19</title>
<ellipse fill="none" stroke="black" cx="325" cy="-1277" rx="50.9117" ry="19.0919"/>
<text text-anchor="middle" x="325" y="-1273.9" font-family="Times Roman,serif" font-size="14.00">ForkX5_1</text>
</g>
<!-- http://www.seasrproject.org/components/entropy/entropy/blinkie19 -->
<g id="node7" class="node"><title>http://www.seasrproject.org/components/entropy/entropy/blinkie19</title>
<ellipse fill="none" stroke="black" cx="233" cy="-1055" rx="41.9273" ry="19.0919"/>
<text text-anchor="middle" x="233" y="-1051.9" font-family="Times Roman,serif" font-size="14.00">Entropy</text>
</g>
<!-- http://www.seasrproject.org/components/forkx5/forkx5_1/blinkie19&#45;&gt;http://www.seasrproject.org/components/entropy/entropy/blinkie19 -->
<g id="edge34" class="edge"><title>http://www.seasrproject.org/components/forkx5/forkx5_1/blinkie19&#45;&gt;http://www.seasrproject.org/components/entropy/entropy/blinkie19</title>
<path fill="none" stroke="black" d="M316.985,-1258.22C312.501,-1247.62 306.853,-1234.1 302,-1222 282.157,-1172.51 279.964,-1159.03 259,-1110 255.198,-1101.11 250.791,-1091.54 246.697,-1082.92"/>
<polygon fill="black" stroke="black" points="249.741,-1081.18 242.257,-1073.68 243.431,-1084.21 249.741,-1081.18"/>
</g>
<!-- http://www.seasrproject.org/components/centroid/centroid/blinkie19 -->
<g id="node14" class="node"><title>http://www.seasrproject.org/components/centroid/centroid/blinkie19</title>
<ellipse fill="none" stroke="black" cx="278" cy="-981" rx="44.7575" ry="19.0919"/>
<text text-anchor="middle" x="278" y="-977.9" font-family="Times Roman,serif" font-size="14.00">Centroid</text>
</g>
<!-- http://www.seasrproject.org/components/forkx5/forkx5_1/blinkie19&#45;&gt;http://www.seasrproject.org/components/centroid/centroid/blinkie19 -->
<g id="edge40" class="edge"><title>http://www.seasrproject.org/components/forkx5/forkx5_1/blinkie19&#45;&gt;http://www.seasrproject.org/components/centroid/centroid/blinkie19</title>
<path fill="none" stroke="black" d="M321.916,-1257.58C313.863,-1206.86 292.165,-1070.21 282.617,-1010.08"/>
<polygon fill="black" stroke="black" points="286.059,-1009.44 281.034,-1000.11 279.146,-1010.53 286.059,-1009.44"/>
</g>
<!-- http://www.seasrproject.org/components/forkx5/forkx5_1/blinkie19&#45;&gt;http://www.seasrproject.org/components/melfilterbank/melfilterbank/blinkie19 -->
<g id="edge76" class="edge"><title>http://www.seasrproject.org/components/forkx5/forkx5_1/blinkie19&#45;&gt;http://www.seasrproject.org/components/melfilterbank/melfilterbank/blinkie19</title>
<path fill="none" stroke="black" d="M353.208,-1260.94C371.47,-1250.55 395.509,-1236.86 415.64,-1225.4"/>
<polygon fill="black" stroke="black" points="417.621,-1228.3 424.58,-1220.32 414.158,-1222.22 417.621,-1228.3"/>
</g>
<!-- http://www.seasrproject.org/components/flux/flux/blinkie19 -->
<g id="node18" class="node"><title>http://www.seasrproject.org/components/flux/flux/blinkie19</title>
<ellipse fill="none" stroke="black" cx="290" cy="-907" rx="28.9914" ry="19.0919"/>
<text text-anchor="middle" x="290" y="-903.9" font-family="Times Roman,serif" font-size="14.00">Flux</text>
</g>
<!-- http://www.seasrproject.org/components/forkx5/forkx5_1/blinkie19&#45;&gt;http://www.seasrproject.org/components/flux/flux/blinkie19 -->
<g id="edge50" class="edge"><title>http://www.seasrproject.org/components/forkx5/forkx5_1/blinkie19&#45;&gt;http://www.seasrproject.org/components/flux/flux/blinkie19</title>
<path fill="none" stroke="black" d="M331.15,-1258.07C339.663,-1230.15 354,-1176.13 354,-1129 354,-1129 354,-1129 354,-1055 354,-1012.53 350.177,-1000.39 332,-962 326.882,-951.192 319.396,-940.475 312.155,-931.411"/>
<polygon fill="black" stroke="black" points="314.738,-929.043 305.65,-923.597 309.358,-933.522 314.738,-929.043"/>
</g>
<!-- http://www.seasrproject.org/components/spectralrolloff/spectralrolloff/blinkie19 -->
<g id="node32" class="node"><title>http://www.seasrproject.org/components/spectralrolloff/spectralrolloff/blinkie19</title>
<ellipse fill="none" stroke="black" cx="177" cy="-1129" rx="72.832" ry="19.0919"/>
<text text-anchor="middle" x="177" y="-1125.9" font-family="Times Roman,serif" font-size="14.00">SpectralRollOff</text>
</g>
<!-- http://www.seasrproject.org/components/forkx5/forkx5_1/blinkie19&#45;&gt;http://www.seasrproject.org/components/spectralrolloff/spectralrolloff/blinkie19 -->
<g id="edge46" class="edge"><title>http://www.seasrproject.org/components/forkx5/forkx5_1/blinkie19&#45;&gt;http://www.seasrproject.org/components/spectralrolloff/spectralrolloff/blinkie19</title>
<path fill="none" stroke="black" d="M304.549,-1259.34C292.512,-1248.75 277.126,-1234.89 264,-1222 241.775,-1200.18 217.665,-1174.21 200.475,-1155.27"/>
<polygon fill="black" stroke="black" points="202.858,-1152.69 193.557,-1147.61 197.665,-1157.38 202.858,-1152.69"/>
</g>
<!-- http://www.seasrproject.org/components/norm/norm/blinkie19 -->
<g id="node4" class="node"><title>http://www.seasrproject.org/components/norm/norm/blinkie19</title>
<ellipse fill="none" stroke="black" cx="554" cy="-1277" rx="34.1461" ry="19.0919"/>
<text text-anchor="middle" x="554" y="-1273.9" font-family="Times Roman,serif" font-size="14.00">Norm</text>
</g>
<!-- http://www.seasrproject.org/components/concatenate1ddarrays/concatenate1ddarrays_1/blinkie19 -->
<g id="node29" class="node"><title>http://www.seasrproject.org/components/concatenate1ddarrays/concatenate1ddarrays_1/blinkie19</title>
<ellipse fill="none" stroke="black" cx="474" cy="-759" rx="113.137" ry="19.0919"/>
<text text-anchor="middle" x="474" y="-755.9" font-family="Times Roman,serif" font-size="14.00">Concatenate1DDArrays_1</text>
</g>
<!-- http://www.seasrproject.org/components/norm/norm/blinkie19&#45;&gt;http://www.seasrproject.org/components/concatenate1ddarrays/concatenate1ddarrays_1/blinkie19 -->
<g id="edge86" class="edge"><title>http://www.seasrproject.org/components/norm/norm/blinkie19&#45;&gt;http://www.seasrproject.org/components/concatenate1ddarrays/concatenate1ddarrays_1/blinkie19</title>
<path fill="none" stroke="black" d="M557.569,-1257.97C569.351,-1194.77 606.569,-992.174 612,-926 613.381,-909.168 614.84,-904.648 612,-888 606.139,-853.636 609.145,-840.067 586,-814 572.956,-799.309 555.098,-788.125 537.473,-779.806"/>
<polygon fill="black" stroke="black" points="538.863,-776.593 528.305,-775.713 536.01,-782.985 538.863,-776.593"/>
</g>
<!-- http://ecs.soton.ac.uk/flows/ldblinkie/linkeddatablinkie/instance/applysignalclassifierstovectors/5 -->
<g id="node5" class="node"><title>http://ecs.soton.ac.uk/flows/ldblinkie/linkeddatablinkie/instance/applysignalclassifierstovectors/5</title>
<ellipse fill="none" stroke="black" cx="368" cy="-241" rx="140.213" ry="19.0919"/>
<text text-anchor="middle" x="368" y="-237.9" font-family="Times Roman,serif" font-size="14.00">ApplySignalClassifiersToVectors</text>
</g>
<!-- http://ecs.soton.ac.uk/flows/ldblinkie/linkeddatablinkie/instance/outputrdf/6 -->
<g id="node9" class="node"><title>http://ecs.soton.ac.uk/flows/ldblinkie/linkeddatablinkie/instance/outputrdf/6</title>
<ellipse fill="none" stroke="black" cx="452" cy="-167" rx="56.0679" ry="19.0919"/>
<text text-anchor="middle" x="452" y="-163.9" font-family="Times Roman,serif" font-size="14.00">OutputRDF</text>
</g>
<!-- http://ecs.soton.ac.uk/flows/ldblinkie/linkeddatablinkie/instance/applysignalclassifierstovectors/5&#45;&gt;http://ecs.soton.ac.uk/flows/ldblinkie/linkeddatablinkie/instance/outputrdf/6 -->
<g id="edge78" class="edge"><title>http://ecs.soton.ac.uk/flows/ldblinkie/linkeddatablinkie/instance/applysignalclassifierstovectors/5&#45;&gt;http://ecs.soton.ac.uk/flows/ldblinkie/linkeddatablinkie/instance/outputrdf/6</title>
<path fill="none" stroke="black" d="M383.644,-221.943C393.61,-212.388 406.73,-200.727 418.86,-190.609"/>
<polygon fill="black" stroke="black" points="421.134,-193.27 426.645,-184.221 416.694,-187.859 421.134,-193.27"/>
</g>
<!-- http://ecs.soton.ac.uk/flows/ldblinkie/linkeddatablinkie/instance/applysignalclassifierstovectors/5&#45;&gt;http://ecs.soton.ac.uk/flows/ldblinkie/linkeddatablinkie/instance/outputrdf/6 -->
<g id="edge82" class="edge"><title>http://ecs.soton.ac.uk/flows/ldblinkie/linkeddatablinkie/instance/applysignalclassifierstovectors/5&#45;&gt;http://ecs.soton.ac.uk/flows/ldblinkie/linkeddatablinkie/instance/outputrdf/6</title>
<path fill="none" stroke="black" d="M395.149,-222.327C406.337,-213.231 419.068,-202.158 429.705,-192.315"/>
<polygon fill="black" stroke="black" points="432.153,-194.818 437.028,-185.411 427.351,-189.724 432.153,-194.818"/>
</g>
<!-- http://ecs.soton.ac.uk/flows/ldblinkie/linkeddatablinkie/instance/print&#45;to&#45;console/8 -->
<g id="node6" class="node"><title>http://ecs.soton.ac.uk/flows/ldblinkie/linkeddatablinkie/instance/print&#45;to&#45;console/8</title>
<ellipse fill="none" stroke="black" cx="452" cy="-19" rx="77.7817" ry="19.0919"/>
<text text-anchor="middle" x="452" y="-15.9" font-family="Times Roman,serif" font-size="14.00">Print To Console</text>
</g>
<!-- http://www.seasrproject.org/components/concatenate1ddarrays/concatenate1ddarrays_5/blinkie19 -->
<g id="node30" class="node"><title>http://www.seasrproject.org/components/concatenate1ddarrays/concatenate1ddarrays_5/blinkie19</title>
<ellipse fill="none" stroke="black" cx="327" cy="-463" rx="113.137" ry="19.0919"/>
<text text-anchor="middle" x="327" y="-459.9" font-family="Times Roman,serif" font-size="14.00">Concatenate1DDArrays_5</text>
</g>
<!-- http://www.seasrproject.org/components/entropy/entropy/blinkie19&#45;&gt;http://www.seasrproject.org/components/concatenate1ddarrays/concatenate1ddarrays_5/blinkie19 -->
<g id="edge64" class="edge"><title>http://www.seasrproject.org/components/entropy/entropy/blinkie19&#45;&gt;http://www.seasrproject.org/components/concatenate1ddarrays/concatenate1ddarrays_5/blinkie19</title>
<path fill="none" stroke="black" d="M224.941,-1036.24C213.787,-1008.52 195,-954.75 195,-907 195,-907 195,-907 195,-611 195,-566.349 203.738,-551.726 233,-518 244.39,-504.872 259.72,-494.081 274.692,-485.641"/>
<polygon fill="black" stroke="black" points="276.769,-488.498 283.93,-480.689 273.462,-482.329 276.769,-488.498"/>
</g>
<!-- http://ecs.soton.ac.uk/flows/ldblinkie/linkeddatablinkie//instance/fork&#45;x2/0 -->
<g id="node8" class="node"><title>http://ecs.soton.ac.uk/flows/ldblinkie/linkeddatablinkie//instance/fork&#45;x2/0</title>
<ellipse fill="none" stroke="black" cx="554" cy="-1795" rx="41.2167" ry="19.0919"/>
<text text-anchor="middle" x="554" y="-1791.9" font-family="Times Roman,serif" font-size="14.00">Fork x2</text>
</g>
<!-- http://ecs.soton.ac.uk/flows/ldblinkie/linkeddatablinkie//instance/fork&#45;x2/0&#45;&gt;http://ecs.soton.ac.uk/flows/ldblinkie/linkeddatablinkie/instance/outputrdf/6 -->
<g id="edge28" class="edge"><title>http://ecs.soton.ac.uk/flows/ldblinkie/linkeddatablinkie//instance/fork&#45;x2/0&#45;&gt;http://ecs.soton.ac.uk/flows/ldblinkie/linkeddatablinkie/instance/outputrdf/6</title>
<path fill="none" stroke="black" d="M592.419,-1788.28C657.398,-1774.46 782,-1736.31 782,-1647 782,-1647 782,-1647 782,-315 782,-255.781 602.84,-203.479 508.539,-180.052"/>
<polygon fill="black" stroke="black" points="509.127,-176.592 498.581,-177.607 507.458,-183.391 509.127,-176.592"/>
</g>
<!-- http://ecs.soton.ac.uk/flows/ldblinkie/linkeddatablinkie//instance/getdetails/1 -->
<g id="node23" class="node"><title>http://ecs.soton.ac.uk/flows/ldblinkie/linkeddatablinkie//instance/getdetails/1</title>
<ellipse fill="none" stroke="black" cx="554" cy="-1721" rx="51.8276" ry="19.0919"/>
<text text-anchor="middle" x="554" y="-1717.9" font-family="Times Roman,serif" font-size="14.00">GetDetails</text>
</g>
<!-- http://ecs.soton.ac.uk/flows/ldblinkie/linkeddatablinkie//instance/fork&#45;x2/0&#45;&gt;http://ecs.soton.ac.uk/flows/ldblinkie/linkeddatablinkie//instance/getdetails/1 -->
<g id="edge58" class="edge"><title>http://ecs.soton.ac.uk/flows/ldblinkie/linkeddatablinkie//instance/fork&#45;x2/0&#45;&gt;http://ecs.soton.ac.uk/flows/ldblinkie/linkeddatablinkie//instance/getdetails/1</title>
<path fill="none" stroke="black" d="M554,-1775.94C554,-1768.15 554,-1758.95 554,-1750.34"/>
<polygon fill="black" stroke="black" points="557.5,-1750.25 554,-1740.25 550.5,-1750.25 557.5,-1750.25"/>
</g>
<!-- http://ecs.soton.ac.uk/flows/ldblinkie/linkeddatablinkie/instance/model&#45;to&#45;rdf&#45;text/7 -->
<g id="node33" class="node"><title>http://ecs.soton.ac.uk/flows/ldblinkie/linkeddatablinkie/instance/model&#45;to&#45;rdf&#45;text/7</title>
<ellipse fill="none" stroke="black" cx="452" cy="-93" rx="91.9239" ry="19.0919"/>
<text text-anchor="middle" x="452" y="-89.9" font-family="Times Roman,serif" font-size="14.00">Model To RDF Text</text>
</g>
<!-- http://ecs.soton.ac.uk/flows/ldblinkie/linkeddatablinkie/instance/outputrdf/6&#45;&gt;http://ecs.soton.ac.uk/flows/ldblinkie/linkeddatablinkie/instance/model&#45;to&#45;rdf&#45;text/7 -->
<g id="edge20" class="edge"><title>http://ecs.soton.ac.uk/flows/ldblinkie/linkeddatablinkie/instance/outputrdf/6&#45;&gt;http://ecs.soton.ac.uk/flows/ldblinkie/linkeddatablinkie/instance/model&#45;to&#45;rdf&#45;text/7</title>
<path fill="none" stroke="black" d="M452,-147.943C452,-140.149 452,-130.954 452,-122.338"/>
<polygon fill="black" stroke="black" points="455.5,-122.249 452,-112.249 448.5,-122.249 455.5,-122.249"/>
</g>
<!-- http://www.seasrproject.org/components/forkx5/forkx5/blinkie19 -->
<g id="node10" class="node"><title>http://www.seasrproject.org/components/forkx5/forkx5/blinkie19</title>
<ellipse fill="none" stroke="black" cx="554" cy="-1425" rx="41.2167" ry="19.0919"/>
<text text-anchor="middle" x="554" y="-1421.9" font-family="Times Roman,serif" font-size="14.00">ForkX5</text>
</g>
<!-- http://www.seasrproject.org/components/forkx5/forkx5/blinkie19&#45;&gt;http://www.seasrproject.org/components/norm/norm/blinkie19 -->
<g id="edge92" class="edge"><title>http://www.seasrproject.org/components/forkx5/forkx5/blinkie19&#45;&gt;http://www.seasrproject.org/components/norm/norm/blinkie19</title>
<path fill="none" stroke="black" d="M554,-1405.95C554,-1380.78 554,-1336.18 554,-1306.6"/>
<polygon fill="black" stroke="black" points="557.5,-1306.44 554,-1296.44 550.5,-1306.44 557.5,-1306.44"/>
</g>
<!-- http://www.seasrproject.org/components/fftrealmagnitude/fftrealmagnitude/blinkie19 -->
<g id="node13" class="node"><title>http://www.seasrproject.org/components/fftrealmagnitude/fftrealmagnitude/blinkie19</title>
<ellipse fill="none" stroke="black" cx="335" cy="-1351" rx="87.1802" ry="19.0919"/>
<text text-anchor="middle" x="335" y="-1347.9" font-family="Times Roman,serif" font-size="14.00">FFTRealMagnitude</text>
</g>
<!-- http://www.seasrproject.org/components/forkx5/forkx5/blinkie19&#45;&gt;http://www.seasrproject.org/components/fftrealmagnitude/fftrealmagnitude/blinkie19 -->
<g id="edge38" class="edge"><title>http://www.seasrproject.org/components/forkx5/forkx5/blinkie19&#45;&gt;http://www.seasrproject.org/components/fftrealmagnitude/fftrealmagnitude/blinkie19</title>
<path fill="none" stroke="black" d="M520.739,-1413.76C486.619,-1402.23 432.896,-1384.08 391.986,-1370.26"/>
<polygon fill="black" stroke="black" points="393.004,-1366.91 382.41,-1367.02 390.763,-1373.54 393.004,-1366.91"/>
</g>
<!-- http://www.seasrproject.org/components/zerocrossings/zerocrossings/blinkie19 -->
<g id="node27" class="node"><title>http://www.seasrproject.org/components/zerocrossings/zerocrossings/blinkie19</title>
<ellipse fill="none" stroke="black" cx="649" cy="-1203" rx="67.1751" ry="19.0919"/>
<text text-anchor="middle" x="649" y="-1199.9" font-family="Times Roman,serif" font-size="14.00">ZeroCrossings</text>
</g>
<!-- http://www.seasrproject.org/components/forkx5/forkx5/blinkie19&#45;&gt;http://www.seasrproject.org/components/zerocrossings/zerocrossings/blinkie19 -->
<g id="edge56" class="edge"><title>http://www.seasrproject.org/components/forkx5/forkx5/blinkie19&#45;&gt;http://www.seasrproject.org/components/zerocrossings/zerocrossings/blinkie19</title>
<path fill="none" stroke="black" d="M562.1,-1406.07C578.821,-1367 617.237,-1277.22 636.909,-1231.25"/>
<polygon fill="black" stroke="black" points="640.204,-1232.45 640.921,-1221.88 633.769,-1229.7 640.204,-1232.45"/>
</g>
<!-- http://ecs.soton.ac.uk/flows/ldblinkie/linkeddatablinkie/instance/vectorizestring/0 -->
<g id="node11" class="node"><title>http://ecs.soton.ac.uk/flows/ldblinkie/linkeddatablinkie/instance/vectorizestring/0</title>
<ellipse fill="none" stroke="black" cx="276" cy="-1869" rx="72.1249" ry="19.0919"/>
<text text-anchor="middle" x="276" y="-1865.9" font-family="Times Roman,serif" font-size="14.00">VectorizeString</text>
</g>
<!-- http://ecs.soton.ac.uk/flows/ldblinkie/linkeddatablinkie/instance/readserializedobject/4 -->
<g id="node12" class="node"><title>http://ecs.soton.ac.uk/flows/ldblinkie/linkeddatablinkie/instance/readserializedobject/4</title>
<ellipse fill="none" stroke="black" cx="95" cy="-1721" rx="94.7523" ry="19.0919"/>
<text text-anchor="middle" x="95" y="-1717.9" font-family="Times Roman,serif" font-size="14.00">ReadSerializedObject</text>
</g>
<!-- http://ecs.soton.ac.uk/flows/ldblinkie/linkeddatablinkie/instance/vectorizestring/0&#45;&gt;http://ecs.soton.ac.uk/flows/ldblinkie/linkeddatablinkie/instance/readserializedobject/4 -->
<g id="edge68" class="edge"><title>http://ecs.soton.ac.uk/flows/ldblinkie/linkeddatablinkie/instance/vectorizestring/0&#45;&gt;http://ecs.soton.ac.uk/flows/ldblinkie/linkeddatablinkie/instance/readserializedobject/4</title>
<path fill="none" stroke="black" d="M253.806,-1850.85C221.597,-1824.52 161.793,-1775.62 125.475,-1745.92"/>
<polygon fill="black" stroke="black" points="127.618,-1743.15 117.661,-1739.53 123.186,-1748.57 127.618,-1743.15"/>
</g>
<!-- http://ecs.soton.ac.uk/flows/ldblinkie/linkeddatablinkie/instance/readserializedobject/4&#45;&gt;http://ecs.soton.ac.uk/flows/ldblinkie/linkeddatablinkie/instance/applysignalclassifierstovectors/5 -->
<g id="edge94" class="edge"><title>http://ecs.soton.ac.uk/flows/ldblinkie/linkeddatablinkie/instance/readserializedobject/4&#45;&gt;http://ecs.soton.ac.uk/flows/ldblinkie/linkeddatablinkie/instance/applysignalclassifierstovectors/5</title>
<path fill="none" stroke="black" d="M90.9706,-1701.94C85.3933,-1673.86 76,-1619.63 76,-1573 76,-1573 76,-1573 76,-389 76,-307.927 166.665,-271.251 246.954,-254.668"/>
<polygon fill="black" stroke="black" points="248.057,-258.018 257.191,-252.649 246.703,-251.15 248.057,-258.018"/>
</g>
<!-- http://www.seasrproject.org/components/fftrealmagnitude/fftrealmagnitude/blinkie19&#45;&gt;http://www.seasrproject.org/components/forkx5/forkx5_1/blinkie19 -->
<g id="edge74" class="edge"><title>http://www.seasrproject.org/components/fftrealmagnitude/fftrealmagnitude/blinkie19&#45;&gt;http://www.seasrproject.org/components/forkx5/forkx5_1/blinkie19</title>
<path fill="none" stroke="black" d="M332.425,-1331.94C331.363,-1324.09 330.109,-1314.81 328.937,-1306.14"/>
<polygon fill="black" stroke="black" points="332.374,-1305.43 327.567,-1295.99 325.437,-1306.37 332.374,-1305.43"/>
</g>
<!-- http://www.seasrproject.org/components/concatenate1ddarrays/concatenate1ddarrays_3/blinkie19 -->
<g id="node25" class="node"><title>http://www.seasrproject.org/components/concatenate1ddarrays/concatenate1ddarrays_3/blinkie19</title>
<ellipse fill="none" stroke="black" cx="355" cy="-611" rx="113.137" ry="19.0919"/>
<text text-anchor="middle" x="355" y="-607.9" font-family="Times Roman,serif" font-size="14.00">Concatenate1DDArrays_3</text>
</g>
<!-- http://www.seasrproject.org/components/centroid/centroid/blinkie19&#45;&gt;http://www.seasrproject.org/components/concatenate1ddarrays/concatenate1ddarrays_3/blinkie19 -->
<g id="edge36" class="edge"><title>http://www.seasrproject.org/components/centroid/centroid/blinkie19&#45;&gt;http://www.seasrproject.org/components/concatenate1ddarrays/concatenate1ddarrays_3/blinkie19</title>
<path fill="none" stroke="black" d="M267.821,-962.373C262.469,-951.932 256.173,-938.526 252,-926 238.667,-885.975 233,-875.187 233,-833 233,-833 233,-833 233,-759 233,-716.813 226.775,-699.815 252,-666 262.69,-651.67 278.238,-640.686 294.029,-632.443"/>
<polygon fill="black" stroke="black" points="295.873,-635.438 303.32,-627.902 292.799,-629.149 295.873,-635.438"/>
</g>
<!-- http://www.seasrproject.org/components/logn/logn/blinkie19 -->
<g id="node22" class="node"><title>http://www.seasrproject.org/components/logn/logn/blinkie19</title>
<ellipse fill="none" stroke="black" cx="455" cy="-1129" rx="33.9411" ry="19.0919"/>
<text text-anchor="middle" x="455" y="-1125.9" font-family="Times Roman,serif" font-size="14.00">LogN</text>
</g>
<!-- http://www.seasrproject.org/components/melfilterbank/melfilterbank/blinkie19&#45;&gt;http://www.seasrproject.org/components/logn/logn/blinkie19 -->
<g id="edge90" class="edge"><title>http://www.seasrproject.org/components/melfilterbank/melfilterbank/blinkie19&#45;&gt;http://www.seasrproject.org/components/logn/logn/blinkie19</title>
<path fill="none" stroke="black" d="M455,-1183.94C455,-1176.15 455,-1166.95 455,-1158.34"/>
<polygon fill="black" stroke="black" points="458.5,-1158.25 455,-1148.25 451.5,-1158.25 458.5,-1158.25"/>
</g>
<!-- http://www.seasrproject.org/components/concatenate1ddarrays/concatenate1ddarrays/blinkie19 -->
<g id="node16" class="node"><title>http://www.seasrproject.org/components/concatenate1ddarrays/concatenate1ddarrays/blinkie19</title>
<ellipse fill="none" stroke="black" cx="474" cy="-833" rx="103.238" ry="19.0919"/>
<text text-anchor="middle" x="474" y="-829.9" font-family="Times Roman,serif" font-size="14.00">Concatenate1DDArrays</text>
</g>
<!-- http://www.seasrproject.org/components/concatenate1ddarrays/concatenate1ddarrays/blinkie19&#45;&gt;http://www.seasrproject.org/components/concatenate1ddarrays/concatenate1ddarrays_1/blinkie19 -->
<g id="edge52" class="edge"><title>http://www.seasrproject.org/components/concatenate1ddarrays/concatenate1ddarrays/blinkie19&#45;&gt;http://www.seasrproject.org/components/concatenate1ddarrays/concatenate1ddarrays_1/blinkie19</title>
<path fill="none" stroke="black" d="M474,-813.943C474,-806.149 474,-796.954 474,-788.338"/>
<polygon fill="black" stroke="black" points="477.5,-788.249 474,-778.249 470.5,-788.249 477.5,-788.249"/>
</g>
<!-- http://ecs.soton.ac.uk/flows/ldblinkie/linkeddatablinkie//instance/url&#45;to&#45;signal&#45;object/1 -->
<g id="node17" class="node"><title>http://ecs.soton.ac.uk/flows/ldblinkie/linkeddatablinkie//instance/url&#45;to&#45;signal&#45;object/1</title>
<ellipse fill="none" stroke="black" cx="554" cy="-1647" rx="98.9949" ry="19.0919"/>
<text text-anchor="middle" x="554" y="-1643.9" font-family="Times Roman,serif" font-size="14.00">URL To Signal Object</text>
</g>
<!-- http://ecs.soton.ac.uk/flows/ldblinkie/linkeddatablinkie//instance/url&#45;to&#45;signal&#45;object/1&#45;&gt;http://ecs.soton.ac.uk/flows/ldblinkie/linkeddatablinkie//instance/gstreamer&#45;read/0 -->
<g id="edge54" class="edge"><title>http://ecs.soton.ac.uk/flows/ldblinkie/linkeddatablinkie//instance/url&#45;to&#45;signal&#45;object/1&#45;&gt;http://ecs.soton.ac.uk/flows/ldblinkie/linkeddatablinkie//instance/gstreamer&#45;read/0</title>
<path fill="none" stroke="black" d="M554,-1627.94C554,-1620.15 554,-1610.95 554,-1602.34"/>
<polygon fill="black" stroke="black" points="557.5,-1602.25 554,-1592.25 550.5,-1602.25 557.5,-1602.25"/>
</g>
<!-- http://www.seasrproject.org/components/concatenate1ddarrays/concatenate1ddarrays_2/blinkie19 -->
<g id="node35" class="node"><title>http://www.seasrproject.org/components/concatenate1ddarrays/concatenate1ddarrays_2/blinkie19</title>
<ellipse fill="none" stroke="black" cx="374" cy="-685" rx="113.137" ry="19.0919"/>
<text text-anchor="middle" x="374" y="-681.9" font-family="Times Roman,serif" font-size="14.00">Concatenate1DDArrays_2</text>
</g>
<!-- http://www.seasrproject.org/components/flux/flux/blinkie19&#45;&gt;http://www.seasrproject.org/components/concatenate1ddarrays/concatenate1ddarrays_2/blinkie19 -->
<g id="edge10" class="edge"><title>http://www.seasrproject.org/components/flux/flux/blinkie19&#45;&gt;http://www.seasrproject.org/components/concatenate1ddarrays/concatenate1ddarrays_2/blinkie19</title>
<path fill="none" stroke="black" d="M296.73,-888.409C307.954,-857.51 331.306,-793.672 352,-740 355.324,-731.379 359.024,-722.035 362.428,-713.537"/>
<polygon fill="black" stroke="black" points="365.762,-714.628 366.246,-704.044 359.267,-712.016 365.762,-714.628"/>
</g>
<!-- http://www.seasrproject.org/components/window/window/blinkie19&#45;&gt;http://www.seasrproject.org/components/forkx5/forkx5/blinkie19 -->
<g id="edge96" class="edge"><title>http://www.seasrproject.org/components/window/window/blinkie19&#45;&gt;http://www.seasrproject.org/components/forkx5/forkx5/blinkie19</title>
<path fill="none" stroke="black" d="M554,-1479.94C554,-1472.15 554,-1462.95 554,-1454.34"/>
<polygon fill="black" stroke="black" points="557.5,-1454.25 554,-1444.25 550.5,-1454.25 557.5,-1454.25"/>
</g>
<!-- http://www.seasrproject.org/components/forkx2/forkx2/blinkie19&#45;&gt;http://www.seasrproject.org/components/concatenate1ddarrays/concatenate1ddarrays/blinkie19 -->
<g id="edge72" class="edge"><title>http://www.seasrproject.org/components/forkx2/forkx2/blinkie19&#45;&gt;http://www.seasrproject.org/components/concatenate1ddarrays/concatenate1ddarrays/blinkie19</title>
<path fill="none" stroke="black" d="M421.254,-969.723C401.327,-961.121 377.764,-947.1 366,-926 357.775,-911.249 357.174,-902.399 366,-888 375.51,-872.485 390.92,-861.176 407.159,-853.001"/>
<polygon fill="black" stroke="black" points="408.646,-856.17 416.233,-848.776 405.691,-849.824 408.646,-856.17"/>
</g>
<!-- http://www.seasrproject.org/components/differencebetweenframes/differencebetweenframes/blinkie19 -->
<g id="node26" class="node"><title>http://www.seasrproject.org/components/differencebetweenframes/differencebetweenframes/blinkie19</title>
<ellipse fill="none" stroke="black" cx="489" cy="-907" rx="114.051" ry="19.0919"/>
<text text-anchor="middle" x="489" y="-903.9" font-family="Times Roman,serif" font-size="14.00">DifferenceBetweenFrames</text>
</g>
<!-- http://www.seasrproject.org/components/forkx2/forkx2/blinkie19&#45;&gt;http://www.seasrproject.org/components/differencebetweenframes/differencebetweenframes/blinkie19 -->
<g id="edge26" class="edge"><title>http://www.seasrproject.org/components/forkx2/forkx2/blinkie19&#45;&gt;http://www.seasrproject.org/components/differencebetweenframes/differencebetweenframes/blinkie19</title>
<path fill="none" stroke="black" d="M463.58,-962.327C467.307,-954.214 471.757,-944.53 475.884,-935.547"/>
<polygon fill="black" stroke="black" points="479.191,-936.731 480.186,-926.183 472.831,-933.809 479.191,-936.731"/>
</g>
<!-- http://ecs.soton.ac.uk/flows/ldblinkie/linkeddatablinkie//instance/push&#45;string/7 -->
<g id="node21" class="node"><title>http://ecs.soton.ac.uk/flows/ldblinkie/linkeddatablinkie//instance/push&#45;string/7</title>
<ellipse fill="none" stroke="black" cx="379" cy="-2017" rx="56.0679" ry="19.0919"/>
<text text-anchor="middle" x="379" y="-2013.9" font-family="Times Roman,serif" font-size="14.00">Push String</text>
</g>
<!-- http://ecs.soton.ac.uk/flows/ldblinkie/linkeddatablinkie//instance/splitstring/0 -->
<g id="node31" class="node"><title>http://ecs.soton.ac.uk/flows/ldblinkie/linkeddatablinkie//instance/splitstring/0</title>
<ellipse fill="none" stroke="black" cx="379" cy="-1943" rx="53.033" ry="19.0919"/>
<text text-anchor="middle" x="379" y="-1939.9" font-family="Times Roman,serif" font-size="14.00">SplitString</text>
</g>
<!-- http://ecs.soton.ac.uk/flows/ldblinkie/linkeddatablinkie//instance/push&#45;string/7&#45;&gt;http://ecs.soton.ac.uk/flows/ldblinkie/linkeddatablinkie//instance/splitstring/0 -->
<g id="edge6" class="edge"><title>http://ecs.soton.ac.uk/flows/ldblinkie/linkeddatablinkie//instance/push&#45;string/7&#45;&gt;http://ecs.soton.ac.uk/flows/ldblinkie/linkeddatablinkie//instance/splitstring/0</title>
<path fill="none" stroke="black" d="M379,-1997.94C379,-1990.15 379,-1980.95 379,-1972.34"/>
<polygon fill="black" stroke="black" points="382.5,-1972.25 379,-1962.25 375.5,-1972.25 382.5,-1972.25"/>
</g>
<!-- http://www.seasrproject.org/components/logn/logn/blinkie19&#45;&gt;http://www.seasrproject.org/components/dct/dct/blinkie19 -->
<g id="edge30" class="edge"><title>http://www.seasrproject.org/components/logn/logn/blinkie19&#45;&gt;http://www.seasrproject.org/components/dct/dct/blinkie19</title>
<path fill="none" stroke="black" d="M455,-1109.94C455,-1102.15 455,-1092.95 455,-1084.34"/>
<polygon fill="black" stroke="black" points="458.5,-1084.25 455,-1074.25 451.5,-1084.25 458.5,-1084.25"/>
</g>
<!-- http://ecs.soton.ac.uk/flows/ldblinkie/linkeddatablinkie//instance/getdetails/1&#45;&gt;http://ecs.soton.ac.uk/flows/ldblinkie/linkeddatablinkie//instance/url&#45;to&#45;signal&#45;object/1 -->
<g id="edge62" class="edge"><title>http://ecs.soton.ac.uk/flows/ldblinkie/linkeddatablinkie//instance/getdetails/1&#45;&gt;http://ecs.soton.ac.uk/flows/ldblinkie/linkeddatablinkie//instance/url&#45;to&#45;signal&#45;object/1</title>
<path fill="none" stroke="black" d="M554,-1701.94C554,-1694.15 554,-1684.95 554,-1676.34"/>
<polygon fill="black" stroke="black" points="557.5,-1676.25 554,-1666.25 550.5,-1676.25 557.5,-1676.25"/>
</g>
<!-- http://www.seasrproject.org/components/streamfixedwindowmeanandcovariance/streamfixedwindowmeanandcovariance/blinkie19&#45;&gt;http://ecs.soton.ac.uk/flows/ldblinkie/linkeddatablinkie/instance/applysignalclassifierstovectors/5 -->
<g id="edge88" class="edge"><title>http://www.seasrproject.org/components/streamfixedwindowmeanandcovariance/streamfixedwindowmeanandcovariance/blinkie19&#45;&gt;http://ecs.soton.ac.uk/flows/ldblinkie/linkeddatablinkie/instance/applysignalclassifierstovectors/5</title>
<path fill="none" stroke="black" d="M430.368,-295.943C420.276,-287.053 408.114,-276.338 397.22,-266.741"/>
<polygon fill="black" stroke="black" points="399.376,-263.976 389.559,-259.992 394.749,-269.229 399.376,-263.976"/>
</g>
<!-- http://www.seasrproject.org/components/streamfixedwindowmeanandcovariance/streamfixedwindowmeanandcovariance/blinkie19&#45;&gt;http://ecs.soton.ac.uk/flows/ldblinkie/linkeddatablinkie/instance/outputrdf/6 -->
<g id="edge22" class="edge"><title>http://www.seasrproject.org/components/streamfixedwindowmeanandcovariance/streamfixedwindowmeanandcovariance/blinkie19&#45;&gt;http://ecs.soton.ac.uk/flows/ldblinkie/linkeddatablinkie/instance/outputrdf/6</title>
<path fill="none" stroke="black" d="M484.634,-296.131C497.195,-286.98 510.158,-274.751 517,-260 524.106,-244.679 524.106,-237.321 517,-222 511.052,-209.176 500.479,-198.259 489.565,-189.613"/>
<polygon fill="black" stroke="black" points="491.346,-186.577 481.224,-183.45 487.187,-192.207 491.346,-186.577"/>
</g>
<!-- http://www.seasrproject.org/components/concatenate1ddarrays/concatenate1ddarrays_4/blinkie19 -->
<g id="node28" class="node"><title>http://www.seasrproject.org/components/concatenate1ddarrays/concatenate1ddarrays_4/blinkie19</title>
<ellipse fill="none" stroke="black" cx="355" cy="-537" rx="113.137" ry="19.0919"/>
<text text-anchor="middle" x="355" y="-533.9" font-family="Times Roman,serif" font-size="14.00">Concatenate1DDArrays_4</text>
</g>
<!-- http://www.seasrproject.org/components/concatenate1ddarrays/concatenate1ddarrays_3/blinkie19&#45;&gt;http://www.seasrproject.org/components/concatenate1ddarrays/concatenate1ddarrays_4/blinkie19 -->
<g id="edge84" class="edge"><title>http://www.seasrproject.org/components/concatenate1ddarrays/concatenate1ddarrays_3/blinkie19&#45;&gt;http://www.seasrproject.org/components/concatenate1ddarrays/concatenate1ddarrays_4/blinkie19</title>
<path fill="none" stroke="black" d="M355,-591.943C355,-584.149 355,-574.954 355,-566.338"/>
<polygon fill="black" stroke="black" points="358.5,-566.249 355,-556.249 351.5,-566.249 358.5,-566.249"/>
</g>
<!-- http://www.seasrproject.org/components/differencebetweenframes/differencebetweenframes/blinkie19&#45;&gt;http://www.seasrproject.org/components/concatenate1ddarrays/concatenate1ddarrays/blinkie19 -->
<g id="edge2" class="edge"><title>http://www.seasrproject.org/components/differencebetweenframes/differencebetweenframes/blinkie19&#45;&gt;http://www.seasrproject.org/components/concatenate1ddarrays/concatenate1ddarrays/blinkie19</title>
<path fill="none" stroke="black" d="M485.137,-887.943C483.527,-880.002 481.623,-870.606 479.848,-861.851"/>
<polygon fill="black" stroke="black" points="483.267,-861.098 477.85,-851.992 476.406,-862.488 483.267,-861.098"/>
</g>
<!-- http://www.seasrproject.org/components/zerocrossings/zerocrossings/blinkie19&#45;&gt;http://www.seasrproject.org/components/concatenate1ddarrays/concatenate1ddarrays_4/blinkie19 -->
<g id="edge16" class="edge"><title>http://www.seasrproject.org/components/zerocrossings/zerocrossings/blinkie19&#45;&gt;http://www.seasrproject.org/components/concatenate1ddarrays/concatenate1ddarrays_4/blinkie19</title>
<path fill="none" stroke="black" d="M653.241,-1183.95C659.112,-1155.88 669,-1101.67 669,-1055 669,-1055 669,-1055 669,-685 669,-631.868 520.037,-581.716 427.314,-555.644"/>
<polygon fill="black" stroke="black" points="427.984,-552.198 417.412,-552.891 426.109,-558.942 427.984,-552.198"/>
</g>
<!-- http://www.seasrproject.org/components/concatenate1ddarrays/concatenate1ddarrays_4/blinkie19&#45;&gt;http://www.seasrproject.org/components/concatenate1ddarrays/concatenate1ddarrays_5/blinkie19 -->
<g id="edge60" class="edge"><title>http://www.seasrproject.org/components/concatenate1ddarrays/concatenate1ddarrays_4/blinkie19&#45;&gt;http://www.seasrproject.org/components/concatenate1ddarrays/concatenate1ddarrays_5/blinkie19</title>
<path fill="none" stroke="black" d="M347.789,-517.943C344.752,-509.916 341.152,-500.402 337.808,-491.565"/>
<polygon fill="black" stroke="black" points="340.999,-490.106 334.186,-481.992 334.452,-492.584 340.999,-490.106"/>
</g>
<!-- http://www.seasrproject.org/components/concatenate1ddarrays/concatenate1ddarrays_1/blinkie19&#45;&gt;http://www.seasrproject.org/components/concatenate1ddarrays/concatenate1ddarrays_2/blinkie19 -->
<g id="edge42" class="edge"><title>http://www.seasrproject.org/components/concatenate1ddarrays/concatenate1ddarrays_1/blinkie19&#45;&gt;http://www.seasrproject.org/components/concatenate1ddarrays/concatenate1ddarrays_2/blinkie19</title>
<path fill="none" stroke="black" d="M448.766,-740.327C436.212,-731.037 420.872,-719.685 407.361,-709.687"/>
<polygon fill="black" stroke="black" points="409.347,-706.802 399.226,-703.667 405.183,-712.429 409.347,-706.802"/>
</g>
<!-- http://www.seasrproject.org/components/concatenate1ddarrays/concatenate1ddarrays_6/blinkie19 -->
<g id="node34" class="node"><title>http://www.seasrproject.org/components/concatenate1ddarrays/concatenate1ddarrays_6/blinkie19</title>
<ellipse fill="none" stroke="black" cx="327" cy="-389" rx="113.137" ry="19.0919"/>
<text text-anchor="middle" x="327" y="-385.9" font-family="Times Roman,serif" font-size="14.00">Concatenate1DDArrays_6</text>
</g>
<!-- http://www.seasrproject.org/components/concatenate1ddarrays/concatenate1ddarrays_5/blinkie19&#45;&gt;http://www.seasrproject.org/components/concatenate1ddarrays/concatenate1ddarrays_6/blinkie19 -->
<g id="edge70" class="edge"><title>http://www.seasrproject.org/components/concatenate1ddarrays/concatenate1ddarrays_5/blinkie19&#45;&gt;http://www.seasrproject.org/components/concatenate1ddarrays/concatenate1ddarrays_6/blinkie19</title>
<path fill="none" stroke="black" d="M327,-443.943C327,-436.149 327,-426.954 327,-418.338"/>
<polygon fill="black" stroke="black" points="330.5,-418.249 327,-408.249 323.5,-418.249 330.5,-418.249"/>
</g>
<!-- http://ecs.soton.ac.uk/flows/ldblinkie/linkeddatablinkie//instance/splitstring/0&#45;&gt;http://ecs.soton.ac.uk/flows/ldblinkie/linkeddatablinkie/instance/vectorizestring/0 -->
<g id="edge32" class="edge"><title>http://ecs.soton.ac.uk/flows/ldblinkie/linkeddatablinkie//instance/splitstring/0&#45;&gt;http://ecs.soton.ac.uk/flows/ldblinkie/linkeddatablinkie/instance/vectorizestring/0</title>
<path fill="none" stroke="black" d="M355.111,-1925.84C341.499,-1916.06 324.234,-1903.65 309.308,-1892.93"/>
<polygon fill="black" stroke="black" points="310.998,-1889.83 300.835,-1886.84 306.914,-1895.52 310.998,-1889.83"/>
</g>
<!-- http://ecs.soton.ac.uk/flows/ldblinkie/linkeddatablinkie//instance/read&#45;semantic&#45;model/0 -->
<g id="node36" class="node"><title>http://ecs.soton.ac.uk/flows/ldblinkie/linkeddatablinkie//instance/read&#45;semantic&#45;model/0</title>
<ellipse fill="none" stroke="black" cx="482" cy="-1869" rx="97.7889" ry="19.0919"/>
<text text-anchor="middle" x="482" y="-1865.9" font-family="Times Roman,serif" font-size="14.00">Read Semantic Model</text>
</g>
<!-- http://ecs.soton.ac.uk/flows/ldblinkie/linkeddatablinkie//instance/splitstring/0&#45;&gt;http://ecs.soton.ac.uk/flows/ldblinkie/linkeddatablinkie//instance/read&#45;semantic&#45;model/0 -->
<g id="edge48" class="edge"><title>http://ecs.soton.ac.uk/flows/ldblinkie/linkeddatablinkie//instance/splitstring/0&#45;&gt;http://ecs.soton.ac.uk/flows/ldblinkie/linkeddatablinkie//instance/read&#45;semantic&#45;model/0</title>
<path fill="none" stroke="black" d="M402.889,-1925.84C416.302,-1916.2 433.263,-1904.01 448.037,-1893.4"/>
<polygon fill="black" stroke="black" points="450.361,-1896.04 456.44,-1887.36 446.277,-1890.36 450.361,-1896.04"/>
</g>
<!-- http://www.seasrproject.org/components/spectralrolloff/spectralrolloff/blinkie19&#45;&gt;http://www.seasrproject.org/components/concatenate1ddarrays/concatenate1ddarrays_6/blinkie19 -->
<g id="edge24" class="edge"><title>http://www.seasrproject.org/components/spectralrolloff/spectralrolloff/blinkie19&#45;&gt;http://www.seasrproject.org/components/concatenate1ddarrays/concatenate1ddarrays_6/blinkie19</title>
<path fill="none" stroke="black" d="M172.759,-1109.95C166.888,-1081.88 157,-1027.67 157,-981 157,-981 157,-981 157,-537 157,-490.486 171.251,-476.008 205,-444 220.79,-429.025 241.357,-417.645 261.093,-409.234"/>
<polygon fill="black" stroke="black" points="262.437,-412.466 270.384,-405.459 259.802,-405.981 262.437,-412.466"/>
</g>
<!-- http://ecs.soton.ac.uk/flows/ldblinkie/linkeddatablinkie/instance/model&#45;to&#45;rdf&#45;text/7&#45;&gt;http://ecs.soton.ac.uk/flows/ldblinkie/linkeddatablinkie/instance/print&#45;to&#45;console/8 -->
<g id="edge14" class="edge"><title>http://ecs.soton.ac.uk/flows/ldblinkie/linkeddatablinkie/instance/model&#45;to&#45;rdf&#45;text/7&#45;&gt;http://ecs.soton.ac.uk/flows/ldblinkie/linkeddatablinkie/instance/print&#45;to&#45;console/8</title>
<path fill="none" stroke="black" d="M452,-73.9432C452,-66.1493 452,-56.9538 452,-48.3381"/>
<polygon fill="black" stroke="black" points="455.5,-48.2494 452,-38.2495 448.5,-48.2495 455.5,-48.2494"/>
</g>
<!-- http://www.seasrproject.org/components/concatenate1ddarrays/concatenate1ddarrays_6/blinkie19&#45;&gt;http://www.seasrproject.org/components/streamfixedwindowmeanandcovariance/streamfixedwindowmeanandcovariance/blinkie19 -->
<g id="edge66" class="edge"><title>http://www.seasrproject.org/components/concatenate1ddarrays/concatenate1ddarrays_6/blinkie19&#45;&gt;http://www.seasrproject.org/components/streamfixedwindowmeanandcovariance/streamfixedwindowmeanandcovariance/blinkie19</title>
<path fill="none" stroke="black" d="M357.899,-370.708C374.029,-361.159 393.97,-349.354 411.338,-339.072"/>
<polygon fill="black" stroke="black" points="413.329,-341.96 420.152,-333.854 409.763,-335.937 413.329,-341.96"/>
</g>
<!-- http://www.seasrproject.org/components/concatenate1ddarrays/concatenate1ddarrays_2/blinkie19&#45;&gt;http://www.seasrproject.org/components/concatenate1ddarrays/concatenate1ddarrays_3/blinkie19 -->
<g id="edge4" class="edge"><title>http://www.seasrproject.org/components/concatenate1ddarrays/concatenate1ddarrays_2/blinkie19&#45;&gt;http://www.seasrproject.org/components/concatenate1ddarrays/concatenate1ddarrays_3/blinkie19</title>
<path fill="none" stroke="black" d="M369.107,-665.943C367.068,-658.002 364.656,-648.606 362.408,-639.851"/>
<polygon fill="black" stroke="black" points="365.753,-638.808 359.876,-629.992 358.973,-640.549 365.753,-638.808"/>
</g>
<!-- http://ecs.soton.ac.uk/flows/ldblinkie/linkeddatablinkie//instance/read&#45;semantic&#45;model/0&#45;&gt;http://ecs.soton.ac.uk/flows/ldblinkie/linkeddatablinkie//instance/fork&#45;x2/0 -->
<g id="edge12" class="edge"><title>http://ecs.soton.ac.uk/flows/ldblinkie/linkeddatablinkie//instance/read&#45;semantic&#45;model/0&#45;&gt;http://ecs.soton.ac.uk/flows/ldblinkie/linkeddatablinkie//instance/fork&#45;x2/0</title>
<path fill="none" stroke="black" d="M500.169,-1850.33C509.198,-1841.05 520.23,-1829.71 529.951,-1819.72"/>
<polygon fill="black" stroke="black" points="532.609,-1822 537.074,-1812.4 527.592,-1817.12 532.609,-1822"/>
</g>
</g>
</svg>
